<svg width="218" height="218" viewBox="0 0 218 218" fill="none" xmlns="http://www.w3.org/2000/svg">
<g clip-path="url(#clip0_17_2)">
<path fill-rule="evenodd" clip-rule="evenodd" d="M68.7814 189.208C65.8496 188.86 63.3283 188.432 61.2242 187.943C55.8642 186.36 52.6772 184.636 51.6668 182.765C50.6043 180.896 50.1934 179.896 50.4163 179.755C50.2351 180.079 51.1773 181.193 53.2455 183.104C55.2601 184.969 59.3856 185.817 65.6043 185.661C69.771 185.412 73.5684 185.875 77.0054 187.041C81.995 188.855 85.9428 190.937 88.8283 193.307C91.7242 195.672 93.2138 196.969 93.307 197.203C93.448 197.011 91.7242 195.927 88.1455 193.927C84.5267 191.932 78.0684 190.36 68.7814 189.208ZM125.834 197.057C126.146 195.724 130.588 192.64 139.172 187.797C143.282 185.907 148.011 185.063 153.36 185.271C159.584 185.375 163.719 184.489 165.771 182.604C167.771 180.677 168.683 179.552 168.5 179.229C168.912 179.5 168.235 180.833 166.459 183.219C164.683 185.604 159.344 187.459 150.427 188.776C150.38 188.776 150.312 188.803 150.219 188.849C140.943 190.079 134.522 191.708 130.964 193.735C127.355 195.765 125.646 196.869 125.834 197.057ZM116.912 134.792C115.812 135.437 114.88 136.057 114.104 136.656C113.875 136.844 113.672 137.005 113.49 137.136C113.255 136.047 113.021 134.927 112.792 133.781C113.604 133.229 114.542 132.697 115.599 132.193C118.146 130.896 121.167 130.088 124.64 129.749C126.375 129.604 128.14 129.64 129.927 129.86C130.38 129.907 130.839 129.973 131.298 130.063C131.714 130.151 132.146 130.24 132.604 130.328C133.474 130.557 134.298 130.735 135.079 130.864C136.724 131.088 138.35 131.016 139.948 130.64C141.542 130.219 143.031 129.579 144.402 128.703C147.047 126.86 149.136 124.839 150.683 122.636C152.23 120.473 153.364 118.688 154.088 117.265C154.766 115.844 155.109 115.115 155.109 115.068C155.109 115.115 154.817 115.869 154.229 117.339C153.593 118.803 152.574 120.656 151.167 122.907C149.755 125.251 147.708 127.495 145.022 129.661C143.651 130.672 142.099 131.459 140.36 132.011C138.584 132.568 136.75 132.781 134.875 132.651C133.918 132.568 133.027 132.437 132.198 132.251C131.787 132.161 131.38 132.099 130.964 132.052C130.552 132.005 130.14 131.984 129.724 131.989C128.079 131.864 126.484 131.912 124.922 132.151C121.818 132.62 119.146 133.5 116.912 134.792ZM78.2507 113.276C78.7548 113.74 79.2652 114.213 79.771 114.713C80.8231 115.625 81.9267 116.489 83.0736 117.307C87.1616 120.172 91.1043 122.328 94.907 123.776C95.1772 123.864 95.4535 123.953 95.7242 124.047C95.8695 125.145 96.1042 126.287 96.4269 127.473C96.1562 127.38 95.8802 127.265 95.6095 127.136C95.3748 127.041 95.1455 126.927 94.9174 126.792C90.7455 125.027 86.4377 122.323 81.9789 118.688C80.8857 117.729 79.8231 116.729 78.8174 115.677C78.307 115.183 77.8231 114.683 77.3642 114.177C76.9018 113.631 76.4642 113.083 76.0575 112.536C75.5934 112.036 75.1772 111.511 74.8122 110.964C74.4428 110.416 74.0788 109.896 73.7028 109.391C73.3856 108.891 73.0627 108.385 72.7403 107.885C72.4642 107.38 72.1882 106.88 71.9122 106.38C71.683 105.921 71.448 105.469 71.219 105.011C70.9898 104.552 70.7814 104.14 70.5934 103.776C70.271 102.959 69.9898 102.245 69.7652 101.651C69.3439 100.421 69.1403 99.8067 69.1403 99.8067C69.1403 99.8067 69.3908 100.401 69.896 101.588C70.1772 102.183 70.5267 102.864 70.9319 103.64C71.1256 104.005 71.3496 104.391 71.6256 104.803C71.86 105.26 72.1147 105.693 72.3856 106.099C72.6616 106.563 72.9642 107.016 73.2923 107.469C73.6564 107.969 74.0215 108.453 74.3908 108.907C74.76 109.407 75.1507 109.912 75.5627 110.412C75.9788 110.864 76.4163 111.349 76.8747 111.849C77.3387 112.303 77.7923 112.781 78.2507 113.276ZM89.5002 96.6973C88.9018 95.328 88.5523 93.932 88.4533 92.516C88.3549 91.0933 88.5106 89.7707 88.9174 88.5307C89.2762 87.344 89.7242 86.2867 90.2762 85.3693C91.459 83.4893 92.5215 82.136 93.4789 81.3067C94.4429 80.432 94.9376 80.016 94.984 80.068C94.9376 80.016 94.4841 80.4587 93.6199 81.3747C92.7081 82.3387 91.7548 83.74 90.7496 85.5733C90.3028 86.536 89.9428 87.588 89.672 88.7347C89.4018 89.9267 89.3642 91.14 89.5523 92.3693C89.7403 93.6507 90.1564 94.8853 90.7975 96.068C91.448 97.2133 92.2507 98.2813 93.2138 99.2867C93.6772 99.74 94.1564 100.197 94.6616 100.651C94.9376 100.88 95.219 101.083 95.4895 101.265L96.3122 101.948C97.4642 102.812 98.5002 103.812 99.4162 104.953C99.6455 105.229 99.8548 105.521 100.042 105.844C99.4948 106.573 98.9948 107.355 98.5415 108.183C98.2655 107.588 97.9175 106.973 97.5055 106.333C96.8122 105.333 95.9842 104.396 95.0215 103.536L94.26 102.849C93.5308 102.303 92.7294 101.76 91.8496 101.208C91.3028 100.896 90.7081 100.557 90.0685 100.188C89.4695 99.828 88.8283 99.4893 88.1403 99.1667C87.5002 98.8547 86.8548 98.5573 86.2138 98.2867C85.5267 98.016 84.86 97.7707 84.2242 97.5413C83.5788 97.3173 82.9642 97.1093 82.3642 96.932C82.0471 96.844 81.7496 96.7547 81.4736 96.6613C81.1975 96.6147 80.9215 96.5467 80.6507 96.4587C80.1455 96.3693 79.6668 96.2813 79.2028 96.1933C78.7496 96.0987 78.36 96.0307 78.0414 95.9893C77.396 95.9067 77.0736 95.86 77.0736 95.86C77.0736 95.86 77.4163 95.8747 78.1043 95.9213C78.3856 95.9693 78.7496 96.0107 79.2028 96.0573C79.6668 96.0987 80.1668 96.1667 80.719 96.2547C80.9898 96.3027 81.2652 96.344 81.5362 96.3907C81.86 96.4787 82.1616 96.5413 82.4319 96.588C83.0736 96.724 83.719 96.88 84.3548 97.0627C85.0414 97.24 85.7294 97.464 86.4163 97.74C87.1043 97.964 87.7923 98.208 88.4789 98.4787C89.1669 98.7547 89.8335 99.0467 90.4695 99.3693C90.8439 99.5 91.1882 99.6613 91.5002 99.8387C90.719 98.8853 90.0575 97.8387 89.5002 96.6973ZM97.1508 135.495C96.7402 135.224 96.3069 135 95.8442 134.812C93.6455 133.683 91.083 132.964 88.1564 132.656C86.3695 132.479 84.5362 132.464 82.6668 132.609C81.6975 132.703 80.7403 132.849 79.7814 133.036C78.8231 133.172 77.8642 133.339 76.9018 133.527C74.8908 133.907 72.8747 134.027 70.8642 133.896C68.807 133.812 66.8856 133.479 65.0986 132.891C61.3908 131.631 58.4267 129.927 56.2242 127.787C54.0215 125.693 52.459 123.875 51.5308 122.317C50.6147 120.812 50.1507 120.041 50.1507 119.989C50.1507 120.041 50.6362 120.792 51.6043 122.251C52.1095 122.979 52.7496 123.803 53.5308 124.708C54.36 125.62 55.3496 126.536 56.5002 127.443C57.6455 128.401 58.948 129.265 60.4163 130.036C61.9319 130.849 63.5788 131.484 65.3695 131.932C67.1095 132.385 68.9428 132.584 70.86 132.521C72.7762 132.516 74.683 132.281 76.5471 131.812L77.9215 131.464L79.4319 131.047C80.3908 130.812 81.3747 130.604 82.3747 130.412C84.3909 130.131 86.3549 129.989 88.2762 129.979C89.2814 129.973 90.2652 130.036 91.2294 130.172C92.1403 130.255 93.0575 130.396 93.9789 130.573C94.4319 130.703 94.8642 130.839 95.2814 130.979C96.1508 131.197 96.9735 131.469 97.7548 131.787C97.9842 132.251 98.1935 132.724 98.3802 133.229C100.318 137.88 103.588 143.011 108.188 148.62C107.588 148.303 105.927 144.516 103.198 137.251C100.464 129.989 100.083 121.099 102.052 110.568C102.094 110.385 102.14 110.203 102.183 110.021C102.636 108.188 103.246 106.333 104.011 104.453C104.194 104.131 104.422 103.807 104.694 103.489C105.104 102.937 105.516 102.391 105.922 101.833C106.599 100.781 107.126 99.6773 107.49 98.536C107.755 97.4373 107.823 96.364 107.678 95.3067C107.536 94.26 107.282 93.3227 106.907 92.5053C106.5 91.7293 106.104 91.088 105.735 90.584C104.864 89.5787 104.402 89.0827 104.36 89.0827C104.402 89.0827 104.907 89.536 105.87 90.448C106.334 90.9013 106.812 91.516 107.318 92.292C107.828 93.068 108.246 94.0053 108.574 95.0987C108.891 96.24 108.99 97.4787 108.86 98.8027C108.73 100.177 108.35 101.552 107.708 102.927C107.531 103.251 107.37 103.573 107.24 103.885C107.052 104.167 106.896 104.464 106.76 104.787C106.443 105.421 106.151 106.068 105.88 106.708C105.828 106.755 105.807 106.828 105.807 106.917C105.26 108.104 104.812 109.364 104.454 110.697C104.136 112.073 103.912 113.416 103.787 114.745C103.651 115.708 103.61 116.667 103.656 117.625C103.99 120.145 104.828 123.203 106.172 126.812C106.579 125.896 107.079 124.771 107.667 123.443C107.76 123.307 107.823 123.188 107.87 123.093C108.188 122.317 108.5 121.495 108.818 120.625C109.224 119.661 109.615 118.631 109.974 117.531C110.38 116.432 110.76 115.312 111.12 114.161C111.484 112.973 111.823 111.787 112.136 110.593C112.454 109.401 112.719 108.188 112.943 106.948C113.167 105.765 113.364 104.593 113.547 103.453C113.678 102.303 113.787 101.183 113.875 100.083C113.959 99.0307 114.006 98.052 114 97.136C113.948 96.1773 113.922 95.3067 113.918 94.5307C113.87 94.1613 113.823 93.8173 113.776 93.5C113.729 93.1827 113.683 92.88 113.636 92.6093C113.49 91.5107 113.416 90.9427 113.416 90.8907C113.416 90.9427 113.563 91.5107 113.839 92.604C113.891 92.8387 113.959 93.1307 114.052 93.5C114.099 93.776 114.145 94.1147 114.193 94.5307C114.287 95.3067 114.407 96.1507 114.547 97.0627C114.599 98.0213 114.646 99.052 114.698 100.151C114.703 101.197 114.688 102.349 114.646 103.584C114.558 104.729 114.474 105.943 114.386 107.224C114.208 108.271 114.052 109.344 113.918 110.448C114.282 109.937 114.694 109.464 115.151 109C115.604 108.5 116.083 107.989 116.579 107.484C117.131 106.979 117.678 106.473 118.224 105.969C118.818 105.459 119.432 104.979 120.068 104.516L120.959 103.828C121.276 103.599 121.594 103.391 121.918 103.203C122.24 102.979 122.552 102.771 122.875 102.584C123.24 102.401 123.558 102.219 123.828 102.036C124.194 101.891 124.516 101.729 124.787 101.547C125.11 101.407 125.432 101.271 125.75 101.131C126.068 101.036 126.364 100.921 126.64 100.781C126.912 100.645 127.183 100.557 127.464 100.505C128.058 100.323 128.558 100.156 128.97 100.016C129.427 99.9213 129.834 99.8333 130.203 99.74C130.844 99.5987 131.183 99.5307 131.235 99.5307C131.183 99.5307 130.844 99.6253 130.208 99.8067C129.886 99.9013 129.495 100.016 129.036 100.156C128.584 100.339 128.099 100.527 127.599 100.708C127.328 100.803 127.052 100.921 126.782 101.057C126.5 101.197 126.208 101.339 125.886 101.473C125.615 101.656 125.318 101.817 125 101.959C124.73 102.14 124.427 102.328 124.104 102.511C123.792 102.693 123.49 102.875 123.219 103.068C122.902 103.292 122.604 103.527 122.334 103.755C122.011 103.937 121.694 104.167 121.37 104.448L120.552 105.136C119.959 105.636 119.412 106.145 118.918 106.651C118.364 107.203 117.864 107.729 117.412 108.24C116.959 108.787 116.527 109.312 116.115 109.817C115.703 110.323 115.339 110.803 115.022 111.265C114.703 111.724 114.432 112.156 114.203 112.573C113.932 112.937 113.73 113.26 113.588 113.536C113.407 113.807 113.298 114.021 113.251 114.151C113.251 114.203 113.23 114.224 113.178 114.224C113.183 114.364 113.162 114.495 113.12 114.636C112.844 115.869 112.579 117.063 112.307 118.208C112.036 119.172 111.771 120.109 111.495 121.021C111.495 120.932 111.495 120.839 111.495 120.749L111.093 122.333C110.864 123.063 110.64 123.771 110.416 124.459C110.37 124.688 110.303 124.917 110.208 125.145C110.303 125.052 110.391 124.989 110.484 124.937C110.85 124.615 111.214 124.317 111.579 124.047C112.584 123.307 113.698 122.683 114.932 122.177C117.579 121.156 120.35 120.828 123.23 121.177C124.558 121.355 125.864 121.391 127.146 121.297C128.375 121.156 129.584 120.901 130.776 120.531C133.057 119.604 134.902 118.38 136.318 116.864C137.73 115.396 138.708 114.109 139.246 113.011C139.798 111.912 140.068 111.36 140.068 111.36C140.068 111.36 139.839 111.932 139.386 113.079C138.938 114.224 138.074 115.625 136.803 117.276C135.479 118.927 133.609 120.355 131.193 121.557C129.964 122.109 128.656 122.505 127.282 122.735C125.912 122.973 124.522 123.047 123.104 122.964C120.495 122.885 118.094 123.375 115.907 124.432C114.255 125.265 112.918 126.281 111.864 127.473C111.594 127.792 111.323 128.093 111.052 128.369C109.912 129.885 109.136 131.167 108.735 132.224C108.688 132.265 108.646 132.333 108.599 132.427C108.459 132.697 109.438 135.416 111.516 140.579C113.599 145.74 117.558 151.807 123.396 158.776C122.527 158.645 119.964 153.855 115.714 144.401C116.912 146.136 118.224 147.937 119.651 149.803C125.542 157.645 129.688 164.697 132.099 170.953C130.224 171.188 128.416 171.609 126.683 172.213C121.662 164.229 118.828 159.943 118.183 159.355C119.5 167.807 118.391 174.511 114.839 179.469C111.334 182.917 109.563 184.839 109.516 185.255C109.47 185.073 108.37 183.817 106.208 181.495C111.355 176.031 111.844 168.615 107.688 159.26C103.303 150.407 100.459 142.917 99.1508 136.792C98.5522 136.333 97.8855 135.907 97.1508 135.495ZM96.3442 186C100.334 187.536 103.542 188.943 105.97 190.213C103.678 188.484 101.474 187.005 99.3695 185.781C91.7496 181.651 85.5882 179.459 80.8747 179.208C76.1617 178.953 73.7403 178.964 73.6095 179.24C79.9122 177.749 85.7652 177.86 91.172 179.573C96.5308 181.245 100.86 183.235 104.172 185.552C105.36 186.281 106.349 186.943 107.125 187.531C106.391 186.849 105.656 186.167 104.918 185.484C99.0935 180.749 93.8642 177.844 89.2403 176.765C84.6147 175.688 82.1668 175.245 81.8908 175.427C87.8387 174.855 93.2138 175.88 98.0269 178.516C102.798 181.099 106.167 183.369 108.146 185.328C109.016 186.104 109.474 186.516 109.522 186.557C109.522 186.516 109.932 186.12 110.75 185.391C112.708 183.412 116.088 181.088 120.88 178.412C125.672 175.74 131.036 174.661 136.99 175.183C136.714 175 134.246 175.495 129.579 176.656C124.922 177.776 119.678 180.771 113.839 185.645C113.203 186.245 112.541 186.864 111.86 187.511C112.636 186.959 113.527 186.36 114.527 185.713C117.812 183.369 122.146 181.292 127.536 179.484C132.974 177.672 138.896 177.484 145.307 178.921C145.167 178.645 142.698 178.683 137.896 179.021C133.052 179.317 126.746 181.677 118.99 186.109C117.074 187.26 115.115 188.62 113.109 190.183C115.255 189.027 118.058 187.735 121.531 186.303C130.522 182.193 140.511 180.432 151.495 181.021C152.495 181.156 153.506 181.333 154.516 181.552C154.464 181.511 153.506 181.495 151.631 181.505C146.87 181.156 138.943 182.932 127.85 186.817C122.088 189.088 116 192.521 109.568 197.131C102.412 192.125 95.7188 188.541 89.484 186.375C79.1772 183.036 71.8122 181.536 67.3747 181.875C65.448 181.885 64.4695 181.912 64.4215 181.953C65.4267 181.724 66.459 181.536 67.5054 181.396C77.9319 180.661 87.5471 182.193 96.3442 186ZM42.672 42.9013C61.0267 24.8907 83.0575 15.672 108.766 15.2347C134.474 15.3907 156.563 24.416 175.027 42.3173C193.088 60.672 202.307 82.6973 202.693 108.407C202.656 129.724 196.265 148.776 183.531 165.584C182.396 166.959 180.875 168.651 178.959 170.677C177.683 171.823 175.678 173.183 172.938 174.749C173.803 173.052 174.271 170.145 174.344 166.027C174.531 166.901 172.918 169.464 169.506 173.735C166.042 178.011 159.626 178.855 150.235 176.292C149.183 175.839 148.131 175.297 147.068 174.661C142.85 172.161 138.87 170.896 135.115 170.869C132.896 164.932 129.156 158.245 123.912 150.812C125.088 148.937 125.677 147.625 125.677 146.901C128.255 150.136 130.042 151.068 131.042 149.688C132.042 148.265 132.516 147.323 132.474 146.869C134.307 148.183 135.224 148.183 135.219 146.855C135.214 145.527 135.14 144.729 134.995 144.459C138.579 146.912 140.588 146.855 141.036 144.287C141.432 141.771 141.547 140.24 141.36 139.693C144.235 139.088 145.219 137.984 144.292 136.385C145.76 137.021 146.807 136.765 147.448 135.615C148.083 134.469 148.375 133.781 148.328 133.552C150.079 136.844 151.667 138.412 153.083 138.271C154.506 138.125 155.229 137.917 155.276 137.636C156.609 139.005 157.735 139.344 158.64 138.651C159.599 137.964 160.104 137.505 160.151 137.271C162.542 140.193 164.328 141.24 165.511 140.407C166.213 143.927 167.251 145.5 168.62 145.125C169.99 144.803 170.771 144.479 170.948 144.156C174.287 143.729 175.61 142.719 174.918 141.12C177.115 142.073 178.355 141.88 178.62 140.557C178.886 139.229 178.953 138.427 178.812 138.156C181.651 138.323 183 137.907 182.86 136.901C182.667 135.891 182.459 135.303 182.229 135.115C183.459 132.921 183.656 131.083 182.828 129.625C181.995 128.167 181.47 127.391 181.235 127.303C183.891 128.115 185.88 127.921 187.203 126.729C188.479 125.573 189.115 124.864 189.115 124.588C190.636 126.593 191.803 127.255 192.625 126.563C193.489 125.833 193.922 125.344 193.922 125.115C195.839 123.599 196.104 122.573 194.735 122.027C197.563 121.464 198.844 120.636 198.563 119.541C198.24 118.396 197.932 117.76 197.661 117.62C199.021 114.964 199.104 113.136 197.907 112.131C196.672 111.131 195.912 110.677 195.64 110.771C197.271 107.151 197.099 104.932 195.131 104.12C193.156 103.303 191.973 102.964 191.563 103.104C191.453 99.2133 190.506 97.0267 188.719 96.5307C186.979 96.0787 185.969 95.9693 185.697 96.1973C183.891 91.9533 182.375 90.3853 181.145 91.4893C180.855 87.0933 179.745 84.948 177.828 85.0467C175.901 85.1973 174.803 85.4533 174.531 85.8173C173.006 81.2547 171.719 79.5413 170.667 80.688C170.792 77.6253 170.26 76.0733 169.074 76.0307C167.88 75.9893 167.194 76.0827 167.016 76.3173C165.631 74.172 164.416 73.4693 163.37 74.2027C162.318 74.984 161.771 75.516 161.724 75.792C159.984 75.2027 158.75 75.1613 158.022 75.672C158.782 71.5 158.407 69.4427 156.896 69.5C158.536 67.432 158.896 65.9893 157.974 65.172C157.058 64.3547 156.464 63.964 156.183 64.016C156.454 61.448 155.87 59.8747 154.448 59.2867C153.031 58.6973 152.183 58.448 151.912 58.5413C152.943 55.156 152.662 53.5787 151.063 53.812C152.194 50.1453 152.115 48.1827 150.834 47.912C149.594 47.6453 148.818 47.6253 148.5 47.8547C146.698 44.3387 145.088 42.792 143.677 43.208C142.307 43.6307 141.574 44.0213 141.484 44.3853C140.099 41.2813 138.834 40.188 137.698 41.1093C136.219 37.9173 134.636 36.5267 132.943 36.9427C131.208 37.412 130.276 37.8027 130.136 38.1253C128.984 36.5267 127.954 36.12 127.042 36.9013C126.131 37.7293 125.656 38.2547 125.609 38.4893C123.364 38.448 121.907 39.0733 121.224 40.36C119.162 39.4067 117.698 39.2507 116.834 39.9013C115.631 37.292 114.344 36.156 112.974 36.484C111.558 36.812 110.776 37.088 110.646 37.3173C108.167 35.8226 106.703 35.62 106.255 36.7186C105.328 34.62 104.022 33.964 102.334 34.7493C100.599 35.584 99.6402 36.1307 99.4535 36.4067C97.8548 35.4067 96.4122 35.552 95.1362 36.8387C93.9122 38.0787 93.2455 38.8333 93.1564 39.1093C92.0523 37.9267 90.6362 37.9587 88.9018 39.1973C87.1721 40.4427 86.2138 41.1973 86.0308 41.4787C83.0054 40.6667 80.584 40.792 78.76 41.8547C76.9319 42.9533 76.0002 43.604 75.9532 43.7867C73.1199 43.9373 71.7548 45.016 71.8548 47.0307C72.0002 49.0413 72.1882 50.208 72.4163 50.5213C68.3908 51.0413 66.5471 52.0827 66.8747 53.636C67.1564 55.1933 67.4788 56.0627 67.8496 56.24C66.1507 56.3387 65.2652 57.14 65.183 58.656C65.0986 60.1613 65.1256 61.036 65.2548 61.26C63.7496 60.9947 62.7653 61.5733 62.3174 62.9893C61.8695 64.36 61.6616 65.1667 61.7138 65.3907C60.2403 63.8907 58.9788 63.76 57.9376 64.9947C56.8439 66.2813 56.271 67.0627 56.2294 67.3387C54.8548 66.016 53.7351 66.0213 52.8695 67.3547C52.0002 68.6827 51.5523 69.5107 51.5106 69.828C47.3496 70.9013 45.5684 72.1613 46.172 73.6253C44.0215 73.9587 43.0471 74.948 43.2351 76.5933C43.4695 78.188 43.683 79.104 43.8642 79.3333C41.172 80.3547 40.0788 81.6613 40.5882 83.2547C36.7496 83.9173 34.8601 85.412 34.9122 87.74C34.9215 90.0307 35.0684 91.3333 35.3439 91.6507C32.8283 91.6147 31.7351 92.4213 32.0627 94.068C29.5054 96.0467 29.1934 97.5573 31.1147 98.604C33.0471 99.6453 34.26 100.161 34.7652 100.161C36.9215 101.708 38.2923 101.697 38.8804 100.145C39.396 103.297 40.2242 104.989 41.3747 105.208C38.8174 107.145 37.9319 108.453 38.7081 109.136C37.3387 109 36.4018 109.645 35.9122 111.063C35.4122 112.489 35.1882 113.312 35.2351 113.541C32.5789 112.271 31.0414 112.349 30.6362 113.771C27.6617 113.505 26.1617 114.697 26.1257 117.355C26.1362 120.057 26.26 121.631 26.4898 122.083C24.9428 124.473 24.9319 126.208 26.4428 127.303C27.9122 128.344 28.807 128.875 29.1309 128.869C28.9481 130.651 30.26 131.448 33.0471 131.255C35.8804 131.104 37.5054 130.937 37.9174 130.749C36.7403 133.088 36.8804 134.531 38.3496 135.068C39.8122 135.615 40.708 135.839 41.0267 135.745C41.183 138.807 41.8439 139.973 43.0308 139.235C42.5002 142.667 42.9428 144.38 44.3548 144.375C44.8695 146.891 45.6975 147.573 46.8387 146.421C47.9788 145.229 48.6147 144.448 48.7496 144.083C52.5471 144.568 55.1308 144.104 56.495 142.677C57.5575 144.817 58.6362 145.432 59.7294 144.516C60.8174 143.593 61.4122 142.973 61.5002 142.651C62.9736 144.161 64.5789 144.584 66.3122 143.932C68.0934 143.287 69.0788 142.849 69.26 142.62C68.86 145.688 69.3496 147.536 70.7242 148.172C72.1455 148.76 72.9695 148.979 73.1934 148.849C74.995 152.177 76.3908 152.86 77.3908 150.885C78.3908 148.917 78.907 147.651 78.9532 147.104C81.2975 149.104 82.8029 149.369 83.4789 147.907C84.1617 146.437 84.4788 145.527 84.4376 145.156C86.5414 146.891 88.1934 147.156 89.3747 145.959C90.6095 144.724 91.2242 143.943 91.219 143.62L95.0789 147.036L99.5415 147.563C100.974 151.489 102.85 155.803 105.151 160.5C108.246 166.62 108.542 172.041 106.047 176.76C105.552 177.724 104.938 178.667 104.208 179.584C100.812 176.303 96.3175 173.74 90.7294 171.885C85.0934 170.041 78.7814 171.073 71.8028 174.995C70.7548 175.636 69.7294 176.188 68.7242 176.656C59.3122 179.303 52.8804 178.511 49.4319 174.271C45.9319 170.027 44.2762 167.479 44.4532 166.604C44.5627 170.719 45.0575 173.625 45.9376 175.312C43.4163 173.907 41.5106 172.636 40.2242 171.495C37.0054 168.219 34.896 165.849 33.8804 164.391C21.9174 148.115 15.8174 129.729 15.5934 109.235C15.7497 83.484 24.7762 61.3693 42.672 42.9013ZM108.746 11.0467C81.0308 11.8547 58.0163 21.4947 39.7138 39.9693C21.4018 58.4373 11.9695 81.5307 11.407 109.255C12.2138 136.927 21.8548 159.912 40.3283 178.224C58.7923 196.527 81.8908 205.964 109.615 206.527C137.287 205.714 160.271 196.079 178.584 177.609C196.886 159.136 206.317 136.068 206.88 108.385C206.073 80.672 196.432 57.6613 177.97 39.3547C159.495 21.0467 136.422 11.6093 108.746 11.0467Z" fill="#FA4238"/>
<path fill-rule="evenodd" clip-rule="evenodd" d="M109.557 209.541C81.0053 208.943 57.2027 199.208 38.1361 180.355C19.1146 161.459 9.17714 137.74 8.31727 109.197C8.9266 80.6507 18.6506 56.844 37.5053 37.7814C56.4017 18.7547 80.1198 8.82267 108.661 7.95867C137.208 8.568 161.016 18.292 180.079 37.1454C199.104 56.0467 209.041 79.7653 209.901 108.303C209.297 136.855 199.568 160.656 180.713 179.724C161.812 198.745 138.099 208.688 109.557 209.541ZM108.625 7.87806e-06C77.8027 0.912008 52.2079 11.64 31.8495 32.1773C11.4949 52.7187 1.00007 78.4013 0.354736 109.235C1.27087 140.063 12.0001 165.656 32.5307 186.011C53.0735 206.364 78.7599 216.864 109.588 217.505C140.421 216.588 166.011 205.86 186.364 185.328C206.719 164.792 217.219 139.104 217.86 108.271C216.948 77.4427 206.219 51.8547 185.683 31.4947C165.151 11.14 139.464 0.640008 108.625 7.87806e-06Z" fill="#0005FF"/>
<path fill-rule="evenodd" clip-rule="evenodd" d="M135.079 130.864C134.344 130.735 133.521 130.557 132.604 130.328C132.188 130.193 131.755 130.104 131.297 130.063C130.839 129.973 130.401 129.907 129.995 129.86C128.161 129.593 126.401 129.531 124.708 129.677C121.188 130.063 118.145 130.896 115.599 132.193C114.541 132.697 113.604 133.208 112.792 133.708C113.021 134.901 113.255 136.016 113.489 137.073C113.713 136.932 113.921 136.792 114.104 136.656C114.927 136.011 115.885 135.391 116.979 134.792C119.167 133.5 121.817 132.599 124.921 132.079C126.484 131.891 128.079 131.833 129.724 131.917C130.188 131.964 130.599 132.005 130.964 132.052C131.421 132.099 131.833 132.161 132.197 132.251C133.068 132.385 133.984 132.521 134.943 132.651C136.823 132.781 138.625 132.568 140.36 132.011C142.099 131.407 143.651 130.604 145.021 129.588C147.708 127.469 149.755 125.251 151.167 122.907C152.62 120.615 153.64 118.755 154.229 117.339C154.817 115.869 155.109 115.115 155.109 115.068C155.109 115.115 154.765 115.844 154.088 117.265C153.407 118.645 152.297 120.407 150.749 122.563C149.208 124.765 147.088 126.787 144.401 128.631C143.073 129.552 141.615 130.197 140.011 130.573C138.369 130.989 136.724 131.088 135.079 130.864Z" fill="white"/>
<path fill-rule="evenodd" clip-rule="evenodd" d="M79.2027 96.12C79.6667 96.208 80.1454 96.328 80.6506 96.4587C80.9214 96.5053 81.1974 96.5733 81.4735 96.6613C81.7495 96.7547 82.0469 96.844 82.364 96.932C82.964 97.068 83.5787 97.2707 84.224 97.5413C84.8599 97.7187 85.5265 97.9693 86.2136 98.2867C86.8547 98.516 87.5 98.8067 88.1402 99.1667C88.8282 99.4893 89.4694 99.8067 90.0683 100.125C90.7079 100.484 91.3027 100.849 91.8495 101.208C92.7292 101.76 93.5307 102.281 94.2599 102.781L95.0213 103.464C95.984 104.369 96.812 105.333 97.5053 106.333C97.9173 106.927 98.2654 107.547 98.5414 108.183C99.0414 107.312 99.5414 106.511 100.041 105.776C99.8547 105.5 99.6453 105.229 99.416 104.953C98.5413 103.812 97.5107 102.787 96.312 101.875L95.4893 101.265C95.2188 101.041 94.9375 100.833 94.6615 100.651C94.1563 100.197 93.6771 99.7187 93.2136 99.2133C92.2505 98.26 91.4479 97.188 90.7973 96.0053C90.1563 94.86 89.7401 93.6507 89.5521 92.3693C89.364 91.088 89.4016 89.88 89.6719 88.7347C89.9427 87.5467 90.3027 86.4947 90.7495 85.5733C91.7547 83.6933 92.7079 82.2973 93.6197 81.3747C94.4839 80.4587 94.9375 79.9947 94.9839 79.9947C94.9375 79.9947 94.4588 80.412 93.5469 81.24C92.5469 82.1147 91.4588 83.464 90.276 85.3027C89.724 86.2653 89.276 87.344 88.9172 88.5307C88.5104 89.7707 88.3547 91.0933 88.4531 92.516C88.5522 93.8853 88.9016 95.2547 89.5 96.6253C90.0573 97.7653 90.7188 98.844 91.5 99.8387C91.188 99.6613 90.8438 99.5 90.4694 99.3693C89.8334 99.0467 89.1667 98.7547 88.4787 98.4787C87.7922 98.1667 87.1041 97.8907 86.4161 97.672C85.7292 97.4427 85.0412 97.24 84.3547 97.0627C83.7136 96.8333 83.0735 96.6773 82.4317 96.588C82.1615 96.5 81.8599 96.432 81.536 96.3907C81.2651 96.2973 80.9896 96.2507 80.7188 96.2547C80.1667 96.1147 79.6667 96.0267 79.2027 95.984C78.7922 95.9427 78.4266 95.9213 78.1042 95.9213C77.4162 95.8333 77.0735 95.7867 77.0735 95.7867C77.0735 95.7867 77.3959 95.8547 78.0412 95.9893C78.3599 96.0307 78.7495 96.0787 79.2027 96.12Z" fill="white"/>
<path fill-rule="evenodd" clip-rule="evenodd" d="M70.6615 103.776C70.8437 104.14 71.0307 104.552 71.2188 105.011C71.4479 105.469 71.7027 105.921 71.9735 106.38C72.2079 106.88 72.4839 107.38 72.8068 107.885C73.0828 108.385 73.3855 108.891 73.7027 109.391C74.0787 109.937 74.4427 110.459 74.812 110.964C75.224 111.511 75.6401 112.057 76.0573 112.604C76.464 113.104 76.9016 113.631 77.364 114.177C77.8745 114.677 78.3547 115.203 78.8172 115.745C79.8229 116.749 80.8855 117.729 81.9787 118.688C86.4375 122.323 90.7708 125.027 94.9896 126.792C95.1719 126.927 95.3747 127.041 95.6093 127.136C95.88 127.265 96.156 127.38 96.4267 127.473C96.1507 126.287 95.9173 125.145 95.724 124.047C95.5 123.953 95.2505 123.864 94.9735 123.776C91.1255 122.328 87.1615 120.172 83.0735 117.307C81.9265 116.489 80.8437 115.625 79.8385 114.713C79.2864 114.213 78.7812 113.74 78.3229 113.276C77.8172 112.823 77.3385 112.344 76.8745 111.849C76.4161 111.349 75.9787 110.864 75.5625 110.412C75.1505 109.912 74.7599 109.427 74.3907 108.973C74.0213 108.473 73.6771 108 73.3547 107.536C73.036 107.036 72.7136 106.557 72.3855 106.099C72.1145 105.693 71.8599 105.26 71.6255 104.803C71.3495 104.391 71.1255 104.005 70.9317 103.64C70.5265 102.864 70.1771 102.183 69.8959 101.588C69.3907 100.443 69.1401 99.8494 69.1401 99.8067C69.1401 99.8494 69.3437 100.469 69.7651 101.651C69.9896 102.245 70.2973 102.959 70.6615 103.776Z" fill="white"/>
<path fill-rule="evenodd" clip-rule="evenodd" d="M56.1564 127.787C58.4069 129.927 61.3641 131.631 65.0308 132.891C66.86 133.479 68.7865 133.812 70.7974 133.896C72.8121 134.027 74.8438 133.907 76.9017 133.527C77.8641 133.385 78.823 133.224 79.7813 133.036C80.7402 132.849 81.6772 132.703 82.5933 132.609C84.5105 132.464 86.3438 132.479 88.0829 132.656C91.0574 132.964 93.6454 133.683 95.8441 134.812C96.3068 135.041 96.7401 135.271 97.1508 135.495C97.8854 135.907 98.5268 136.333 99.0788 136.797C100.432 142.917 103.276 150.407 107.615 159.26C111.776 168.573 111.303 175.984 106.208 181.495C108.369 183.817 109.448 185.073 109.448 185.255C109.536 184.844 111.333 182.917 114.839 179.469C118.391 174.511 119.5 167.807 118.183 159.355C118.828 159.943 121.661 164.229 126.683 172.213C128.375 171.609 130.177 171.188 132.099 170.953C129.688 164.74 125.521 157.693 119.584 149.803C118.203 147.937 116.912 146.136 115.713 144.401C119.964 153.855 122.527 158.645 123.396 158.776C117.557 151.807 113.599 145.74 111.516 140.579C109.437 135.416 108.459 132.697 108.599 132.427C108.645 132.333 108.667 132.265 108.667 132.224C109.115 131.167 109.912 129.885 111.052 128.369C111.276 128.093 111.552 127.792 111.864 127.473C112.917 126.281 114.255 125.265 115.907 124.432C118.052 123.375 120.448 122.885 123.104 122.964C124.521 123.047 125.912 122.973 127.281 122.735C128.656 122.505 129.964 122.109 131.193 121.557C133.609 120.355 135.459 118.927 136.729 117.276C138.005 115.579 138.891 114.177 139.385 113.079C139.839 111.932 140.041 111.36 139.995 111.36C140.041 111.36 139.797 111.912 139.245 113.011C138.656 114.068 137.683 115.355 136.317 116.864C134.901 118.38 133.036 119.604 130.703 120.531C129.563 120.901 128.355 121.156 127.073 121.297C125.844 121.391 124.557 121.355 123.229 121.177C120.349 120.828 117.579 121.156 114.932 122.177C113.697 122.683 112.584 123.307 111.579 124.047C111.167 124.317 110.803 124.615 110.484 124.937C110.391 124.989 110.303 125.031 110.208 125.079C110.255 124.891 110.328 124.688 110.416 124.459C110.64 123.771 110.864 123.063 111.093 122.333L111.495 120.749C111.495 120.839 111.495 120.932 111.495 121.021C111.771 120.109 112.016 119.172 112.24 118.208C112.557 117.063 112.844 115.869 113.12 114.636C113.161 114.495 113.183 114.364 113.177 114.224C113.177 114.224 113.208 114.203 113.251 114.151C113.297 114.021 113.407 113.807 113.588 113.536C113.729 113.26 113.932 112.937 114.203 112.573C114.432 112.156 114.703 111.724 115.021 111.265C115.339 110.803 115.703 110.323 116.115 109.817C116.473 109.312 116.907 108.787 117.412 108.24C117.864 107.729 118.344 107.203 118.844 106.651C119.391 106.145 119.959 105.636 120.552 105.136L121.369 104.375C121.693 104.193 121.989 103.984 122.26 103.755C122.584 103.527 122.875 103.292 123.151 103.068C123.469 102.875 123.792 102.693 124.104 102.511C124.385 102.328 124.677 102.14 125 101.959C125.317 101.817 125.615 101.656 125.885 101.473C126.156 101.339 126.437 101.197 126.708 101.057C127.031 100.921 127.303 100.803 127.527 100.708C128.079 100.527 128.584 100.339 129.036 100.156C129.495 100.016 129.885 99.9013 130.208 99.8067C130.844 99.6253 131.183 99.5307 131.235 99.5307C131.183 99.5307 130.823 99.5987 130.136 99.74C129.812 99.8333 129.427 99.9213 128.969 100.016C128.511 100.156 128.011 100.323 127.464 100.505C127.183 100.557 126.912 100.645 126.64 100.781C126.317 100.875 126.027 100.995 125.749 101.131C125.432 101.271 125.109 101.407 124.787 101.547C124.473 101.729 124.151 101.891 123.828 102.036C123.511 102.219 123.193 102.401 122.875 102.584C122.552 102.771 122.24 102.979 121.917 103.203C121.593 103.391 121.276 103.599 120.959 103.828L120 104.516C119.407 104.979 118.817 105.459 118.224 105.969C117.631 106.432 117.083 106.932 116.579 107.484C116.083 107.989 115.604 108.5 115.151 109C114.693 109.505 114.281 109.989 113.917 110.448C114.052 109.344 114.183 108.271 114.317 107.224C114.453 105.943 114.557 104.729 114.645 103.584C114.688 102.349 114.703 101.197 114.697 100.151C114.645 99.052 114.599 98.0213 114.547 97.0627C114.407 96.1507 114.287 95.3067 114.193 94.5307C114.145 94.1613 114.073 93.8173 113.984 93.5C113.932 93.1307 113.864 92.8387 113.771 92.604C113.541 91.5107 113.416 90.9427 113.416 90.8907C113.416 90.9427 113.489 91.5107 113.636 92.6093C113.683 92.88 113.729 93.1827 113.776 93.5C113.823 93.8173 113.849 94.1613 113.849 94.5307C113.901 95.3067 113.948 96.1773 114 97.136C113.953 98.052 113.917 99.0307 113.875 100.083C113.787 101.183 113.677 102.303 113.547 103.453C113.364 104.593 113.167 105.765 112.943 106.948C112.677 108.188 112.407 109.401 112.136 110.593C111.823 111.787 111.484 112.973 111.12 114.161C110.76 115.312 110.38 116.432 109.973 117.531C109.615 118.631 109.224 119.661 108.817 120.625C108.5 121.495 108.161 122.317 107.803 123.099C107.755 123.188 107.708 123.307 107.667 123.443C107.079 124.771 106.579 125.896 106.172 126.812C104.828 123.203 103.989 120.145 103.656 117.625C103.609 116.667 103.631 115.708 103.713 114.745C103.891 113.416 104.136 112.073 104.453 110.697C104.812 109.364 105.24 108.104 105.74 106.917C105.787 106.828 105.807 106.755 105.807 106.708C106.125 106.068 106.416 105.421 106.688 104.787C106.869 104.464 107.052 104.167 107.24 103.885C107.369 103.573 107.531 103.251 107.708 102.927C108.349 101.552 108.729 100.177 108.86 98.8027C108.989 97.4787 108.891 96.24 108.573 95.0987C108.245 94.0053 107.828 93.068 107.317 92.292C106.812 91.516 106.333 90.9013 105.869 90.448C104.907 89.536 104.401 89.0827 104.36 89.0827C104.401 89.0827 104.839 89.5787 105.667 90.584C106.083 91.088 106.5 91.7293 106.907 92.5053C107.281 93.3227 107.536 94.26 107.677 95.3067C107.823 96.3173 107.735 97.396 107.416 98.536C107.099 99.6827 106.579 100.781 105.855 101.833C105.489 102.391 105.083 102.937 104.625 103.489C104.401 103.807 104.193 104.131 104.011 104.453C103.245 106.333 102.636 108.188 102.183 110.021C102.093 110.203 102.052 110.385 102.052 110.568C100.083 121.099 100.464 129.989 103.197 137.251C105.927 144.516 107.568 148.303 108.125 148.62C103.568 143.011 100.317 137.88 98.3801 133.229C98.1454 132.724 97.9374 132.251 97.7548 131.787C96.9734 131.469 96.1508 131.197 95.2813 130.979C94.8173 130.844 94.3856 130.703 93.9788 130.573C93.0574 130.396 92.1198 130.255 91.1616 130.172C90.2454 130.036 89.2813 129.973 88.2761 129.979C86.3069 129.943 84.3386 130.088 82.3746 130.412C81.3746 130.604 80.3694 130.812 79.36 131.052L77.9214 131.464L76.484 131.812C74.6564 132.235 72.7761 132.473 70.86 132.521C68.9428 132.584 67.0829 132.385 65.2974 131.932C63.5626 131.484 61.9318 130.849 60.4162 130.036C58.948 129.265 57.6454 128.401 56.5001 127.443C55.3028 126.536 54.3121 125.62 53.5308 124.708C52.7496 123.803 52.1094 122.979 51.6042 122.251C50.6361 120.792 50.1506 120.041 50.1506 119.989C50.1506 120.041 50.6146 120.812 51.5308 122.317C52.4069 123.875 53.948 125.693 56.1564 127.787Z" fill="white"/>
<path fill-rule="evenodd" clip-rule="evenodd" d="M151.557 181.505C153.484 181.495 154.443 181.511 154.443 181.552C153.484 181.333 152.473 181.156 151.421 181.021C140.443 180.432 130.479 182.193 121.531 186.303C118.016 187.781 115.183 189.073 113.041 190.183C115.093 188.62 117.073 187.26 118.989 186.109C126.745 181.729 133.027 179.364 137.823 179.027C142.677 178.683 145.167 178.645 145.307 178.921C138.849 177.484 132.927 177.672 127.536 179.484C122.104 181.292 117.745 183.369 114.464 185.713C113.459 186.36 112.588 186.979 111.86 187.573C112.5 186.885 113.156 186.245 113.839 185.645C119.677 180.817 124.921 177.823 129.579 176.656C134.245 175.495 136.713 175 136.989 175.183C130.995 174.661 125.599 175.74 120.807 178.412C116.016 181.131 112.667 183.453 110.749 185.391C109.885 186.12 109.453 186.516 109.453 186.557C109.453 186.516 109.016 186.104 108.145 185.328C106.167 183.369 102.776 181.099 97.9641 178.516C93.1933 175.88 87.8386 174.855 81.8907 175.427C82.1198 175.245 84.5413 175.688 89.1667 176.765C93.8438 177.896 99.0934 180.797 104.917 185.484C105.656 186.167 106.364 186.869 107.057 187.599C106.276 186.964 105.312 186.281 104.172 185.552C100.817 183.281 96.4641 181.287 91.1042 179.573C85.7454 177.86 79.9121 177.749 73.6094 179.24C73.7402 178.964 76.1615 178.953 80.8746 179.208C85.5881 179.505 91.7547 181.719 99.3694 185.855C101.473 187.073 103.651 188.527 105.907 190.213C103.521 188.984 100.333 187.584 96.3441 186C87.547 182.193 77.9121 180.661 67.4427 181.396C66.4318 181.536 65.4266 181.724 64.4214 181.953C64.4694 181.912 65.4266 181.885 67.3069 181.88C71.7402 181.579 79.1361 183.079 89.4839 186.375C95.6721 188.541 102.344 192.125 109.5 197.131C115.979 192.521 122.068 189.088 127.776 186.817C138.921 182.932 146.844 181.156 151.557 181.505Z" fill="white"/>
<path fill-rule="evenodd" clip-rule="evenodd" d="M77.0052 187.041C73.5683 185.875 69.7708 185.412 65.6042 185.661C59.3855 185.869 55.2651 185.021 53.2454 183.104C51.1771 181.193 50.235 180.079 50.4162 179.755C50.1932 179.937 50.5839 180.943 51.5984 182.765C52.6563 184.636 55.864 186.36 61.224 187.943C63.2864 188.479 65.8027 188.901 68.7812 189.208C78.0683 190.36 84.5266 191.932 88.1454 193.927C91.724 195.927 93.4479 197.011 93.3068 197.203C93.2136 196.969 91.724 195.672 88.8282 193.307C85.9427 190.937 81.9948 188.855 77.0052 187.041Z" fill="white"/>
<path fill-rule="evenodd" clip-rule="evenodd" d="M168.5 179.229C168.64 179.552 167.708 180.677 165.697 182.604C163.697 184.536 159.584 185.421 153.36 185.271C147.964 185.063 143.213 185.912 139.104 187.797C130.568 192.64 126.12 195.724 125.765 197.057C125.584 196.869 127.292 195.765 130.896 193.735C134.5 191.708 140.943 190.079 150.219 188.849C150.271 188.807 150.339 188.776 150.427 188.776C159.344 187.459 164.683 185.604 166.459 183.219C168.235 180.833 168.912 179.5 168.5 179.229Z" fill="white"/>
</g>
<defs>
<clipPath id="clip0_17_2">
<rect width="218" height="218" fill="white"/>
</clipPath>
</defs>
</svg>
