<svg width="525" height="218" viewBox="0 0 525 218" fill="none" xmlns="http://www.w3.org/2000/svg">
<g clip-path="url(#clip0_19_43)">
<path fill-rule="evenodd" clip-rule="evenodd" d="M68.7814 189.208C65.8496 188.86 63.3283 188.432 61.2242 187.943C55.8642 186.36 52.6772 184.636 51.6668 182.765C50.6043 180.896 50.1934 179.896 50.4163 179.755C50.2351 180.079 51.1773 181.193 53.2455 183.104C55.2601 184.969 59.3856 185.817 65.6043 185.661C69.771 185.412 73.5684 185.875 77.0054 187.041C81.995 188.855 85.9428 190.937 88.8283 193.307C91.7242 195.672 93.2138 196.969 93.307 197.203C93.448 197.011 91.7242 195.927 88.1455 193.927C84.5267 191.932 78.0684 190.36 68.7814 189.208ZM125.834 197.057C126.146 195.724 130.588 192.64 139.172 187.797C143.282 185.907 148.011 185.063 153.36 185.271C159.584 185.375 163.719 184.489 165.771 182.604C167.771 180.677 168.683 179.552 168.5 179.229C168.912 179.5 168.235 180.833 166.459 183.219C164.683 185.604 159.344 187.459 150.427 188.776C150.38 188.776 150.312 188.803 150.219 188.849C140.943 190.079 134.522 191.708 130.964 193.735C127.355 195.765 125.646 196.869 125.834 197.057ZM116.912 134.792C115.812 135.437 114.88 136.057 114.104 136.656C113.875 136.844 113.672 137.005 113.49 137.136C113.255 136.047 113.021 134.927 112.792 133.781C113.604 133.229 114.542 132.697 115.599 132.193C118.146 130.896 121.167 130.088 124.64 129.749C126.375 129.604 128.14 129.64 129.927 129.86C130.38 129.907 130.839 129.973 131.298 130.063C131.714 130.151 132.146 130.24 132.604 130.328C133.474 130.557 134.298 130.735 135.079 130.864C136.724 131.088 138.35 131.016 139.948 130.64C141.542 130.219 143.031 129.579 144.402 128.703C147.047 126.86 149.136 124.839 150.683 122.636C152.23 120.473 153.364 118.688 154.088 117.265C154.766 115.844 155.109 115.115 155.109 115.068C155.109 115.115 154.817 115.869 154.229 117.339C153.593 118.803 152.574 120.656 151.167 122.907C149.755 125.251 147.708 127.495 145.022 129.661C143.651 130.672 142.099 131.459 140.36 132.011C138.584 132.568 136.75 132.781 134.875 132.651C133.918 132.568 133.027 132.437 132.198 132.251C131.787 132.161 131.38 132.099 130.964 132.052C130.552 132.005 130.14 131.984 129.724 131.989C128.079 131.864 126.484 131.912 124.922 132.151C121.818 132.62 119.146 133.5 116.912 134.792ZM78.2507 113.276C78.7548 113.74 79.2652 114.213 79.771 114.713C80.8231 115.625 81.9267 116.489 83.0736 117.307C87.1616 120.172 91.1043 122.328 94.907 123.776C95.1772 123.864 95.4535 123.953 95.7242 124.047C95.8695 125.145 96.1042 126.287 96.4269 127.473C96.1562 127.38 95.8802 127.265 95.6095 127.136C95.3748 127.041 95.1455 126.927 94.9174 126.792C90.7455 125.027 86.4377 122.323 81.9789 118.688C80.8857 117.729 79.8231 116.729 78.8174 115.677C78.307 115.183 77.8231 114.683 77.3642 114.177C76.9018 113.631 76.4642 113.083 76.0575 112.536C75.5934 112.036 75.1772 111.511 74.8122 110.964C74.4428 110.416 74.0788 109.896 73.7028 109.391C73.3856 108.891 73.0627 108.385 72.7403 107.885C72.4642 107.38 72.1882 106.88 71.9122 106.38C71.683 105.921 71.448 105.469 71.219 105.011C70.9898 104.552 70.7814 104.14 70.5934 103.776C70.271 102.959 69.9898 102.245 69.7652 101.651C69.3439 100.421 69.1403 99.8067 69.1403 99.8067C69.1403 99.8067 69.3908 100.401 69.896 101.588C70.1772 102.183 70.5267 102.864 70.9319 103.64C71.1256 104.005 71.3496 104.391 71.6256 104.803C71.86 105.26 72.1147 105.693 72.3856 106.099C72.6616 106.563 72.9642 107.016 73.2923 107.469C73.6564 107.969 74.0215 108.453 74.3908 108.907C74.76 109.407 75.1507 109.912 75.5627 110.412C75.9788 110.864 76.4163 111.349 76.8747 111.849C77.3387 112.303 77.7923 112.781 78.2507 113.276ZM89.5002 96.6973C88.9018 95.328 88.5523 93.932 88.4533 92.516C88.3549 91.0933 88.5106 89.7707 88.9174 88.5307C89.2762 87.344 89.7242 86.2867 90.2762 85.3693C91.459 83.4893 92.5215 82.136 93.4789 81.3067C94.4429 80.432 94.9376 80.016 94.984 80.068C94.9376 80.016 94.4841 80.4587 93.6199 81.3747C92.7081 82.3387 91.7548 83.74 90.7496 85.5734C90.3028 86.536 89.9428 87.588 89.672 88.7347C89.4018 89.9267 89.3642 91.14 89.5523 92.3694C89.7403 93.6507 90.1564 94.8853 90.7975 96.068C91.448 97.2133 92.2507 98.2814 93.2138 99.2867C93.6772 99.74 94.1564 100.197 94.6616 100.651C94.9376 100.88 95.219 101.083 95.4895 101.265L96.3122 101.948C97.4642 102.812 98.5002 103.812 99.4162 104.953C99.6455 105.229 99.8548 105.521 100.042 105.844C99.4948 106.573 98.9948 107.355 98.5415 108.183C98.2655 107.588 97.9175 106.973 97.5055 106.333C96.8122 105.333 95.9842 104.396 95.0215 103.536L94.26 102.849C93.5308 102.303 92.7294 101.76 91.8496 101.208C91.3028 100.896 90.7081 100.557 90.0685 100.188C89.4695 99.828 88.8283 99.4893 88.1403 99.1667C87.5002 98.8547 86.8548 98.5574 86.2138 98.2867C85.5267 98.016 84.86 97.7707 84.2242 97.5414C83.5788 97.3174 82.9642 97.1093 82.3642 96.932C82.0471 96.844 81.7496 96.7547 81.4736 96.6613C81.1975 96.6147 80.9215 96.5467 80.6507 96.4587C80.1455 96.3693 79.6668 96.2813 79.2028 96.1933C78.7496 96.0987 78.36 96.0307 78.0414 95.9894C77.396 95.9067 77.0736 95.86 77.0736 95.86C77.0736 95.86 77.4163 95.8747 78.1043 95.9214C78.3856 95.9694 78.7496 96.0107 79.2028 96.0574C79.6668 96.0987 80.1668 96.1667 80.719 96.2547C80.9898 96.3027 81.2652 96.344 81.5362 96.3907C81.86 96.4787 82.1616 96.5414 82.4319 96.588C83.0736 96.724 83.719 96.88 84.3548 97.0627C85.0414 97.24 85.7294 97.464 86.4163 97.74C87.1043 97.964 87.7923 98.208 88.4789 98.4787C89.1669 98.7547 89.8335 99.0467 90.4695 99.3694C90.8439 99.5 91.1882 99.6614 91.5002 99.8387C90.719 98.8854 90.0575 97.8387 89.5002 96.6973ZM97.1508 135.495C96.7402 135.224 96.3069 135 95.8442 134.812C93.6455 133.683 91.083 132.964 88.1564 132.656C86.3695 132.479 84.5362 132.464 82.6668 132.609C81.6975 132.703 80.7403 132.849 79.7814 133.036C78.8231 133.172 77.8642 133.339 76.9018 133.527C74.8908 133.907 72.8747 134.027 70.8642 133.896C68.807 133.812 66.8856 133.479 65.0986 132.891C61.3908 131.631 58.4267 129.927 56.2242 127.787C54.0215 125.693 52.459 123.875 51.5308 122.317C50.6147 120.812 50.1507 120.041 50.1507 119.989C50.1507 120.041 50.6362 120.792 51.6043 122.251C52.1095 122.979 52.7496 123.803 53.5308 124.708C54.36 125.62 55.3496 126.536 56.5002 127.443C57.6455 128.401 58.948 129.265 60.4163 130.036C61.9319 130.849 63.5788 131.484 65.3695 131.932C67.1095 132.385 68.9428 132.584 70.86 132.521C72.7762 132.516 74.683 132.281 76.5471 131.812L77.9215 131.464L79.4319 131.047C80.3908 130.812 81.3747 130.604 82.3747 130.412C84.3909 130.131 86.3549 129.989 88.2762 129.979C89.2814 129.973 90.2652 130.036 91.2294 130.172C92.1403 130.255 93.0575 130.396 93.9789 130.573C94.4319 130.703 94.8642 130.839 95.2814 130.979C96.1508 131.197 96.9735 131.469 97.7548 131.787C97.9842 132.251 98.1935 132.724 98.3802 133.229C100.318 137.88 103.588 143.011 108.188 148.62C107.588 148.303 105.927 144.516 103.198 137.251C100.464 129.989 100.083 121.099 102.052 110.568C102.094 110.385 102.14 110.203 102.183 110.021C102.636 108.188 103.246 106.333 104.011 104.453C104.194 104.131 104.422 103.807 104.694 103.489C105.104 102.937 105.516 102.391 105.922 101.833C106.599 100.781 107.126 99.6774 107.49 98.536C107.755 97.4374 107.823 96.364 107.678 95.3067C107.536 94.26 107.282 93.3227 106.907 92.5054C106.5 91.7294 106.104 91.088 105.735 90.584C104.864 89.5787 104.402 89.0827 104.36 89.0827C104.402 89.0827 104.907 89.536 105.87 90.448C106.334 90.9013 106.812 91.516 107.318 92.292C107.828 93.068 108.246 94.0053 108.574 95.0987C108.891 96.24 108.99 97.4787 108.86 98.8027C108.73 100.177 108.35 101.552 107.708 102.927C107.531 103.251 107.37 103.573 107.24 103.885C107.052 104.167 106.896 104.464 106.76 104.787C106.443 105.421 106.151 106.068 105.88 106.708C105.828 106.755 105.807 106.828 105.807 106.917C105.26 108.104 104.812 109.364 104.454 110.697C104.136 112.073 103.912 113.416 103.787 114.745C103.651 115.708 103.61 116.667 103.656 117.625C103.99 120.145 104.828 123.203 106.172 126.812C106.579 125.896 107.079 124.771 107.667 123.443C107.76 123.307 107.823 123.188 107.87 123.093C108.188 122.317 108.5 121.495 108.818 120.625C109.224 119.661 109.615 118.631 109.974 117.531C110.38 116.432 110.76 115.312 111.12 114.161C111.484 112.973 111.823 111.787 112.136 110.593C112.454 109.401 112.719 108.188 112.943 106.948C113.167 105.765 113.364 104.593 113.547 103.453C113.678 102.303 113.787 101.183 113.875 100.083C113.959 99.0307 114.006 98.052 114 97.136C113.948 96.1774 113.922 95.3067 113.918 94.5307C113.87 94.1613 113.823 93.8173 113.776 93.5C113.729 93.1827 113.683 92.88 113.636 92.6093C113.49 91.5107 113.416 90.9427 113.416 90.8907C113.416 90.9427 113.563 91.5107 113.839 92.604C113.891 92.8387 113.959 93.1307 114.052 93.5C114.099 93.776 114.145 94.1147 114.193 94.5307C114.287 95.3067 114.407 96.1507 114.547 97.0627C114.599 98.0213 114.646 99.052 114.698 100.151C114.703 101.197 114.688 102.349 114.646 103.584C114.558 104.729 114.474 105.943 114.386 107.224C114.208 108.271 114.052 109.344 113.918 110.448C114.282 109.937 114.694 109.464 115.151 109C115.604 108.5 116.083 107.989 116.579 107.484C117.131 106.979 117.678 106.473 118.224 105.969C118.818 105.459 119.432 104.979 120.068 104.516L120.959 103.828C121.276 103.599 121.594 103.391 121.918 103.203C122.24 102.979 122.552 102.771 122.875 102.584C123.24 102.401 123.558 102.219 123.828 102.036C124.194 101.891 124.516 101.729 124.787 101.547C125.11 101.407 125.432 101.271 125.75 101.131C126.068 101.036 126.364 100.921 126.64 100.781C126.912 100.645 127.183 100.557 127.464 100.505C128.058 100.323 128.558 100.156 128.97 100.016C129.427 99.9213 129.834 99.8334 130.203 99.74C130.844 99.5987 131.183 99.5307 131.235 99.5307C131.183 99.5307 130.844 99.6254 130.208 99.8067C129.886 99.9014 129.495 100.016 129.036 100.156C128.584 100.339 128.099 100.527 127.599 100.708C127.328 100.803 127.052 100.921 126.782 101.057C126.5 101.197 126.208 101.339 125.886 101.473C125.615 101.656 125.318 101.817 125 101.959C124.73 102.14 124.427 102.328 124.104 102.511C123.792 102.693 123.49 102.875 123.219 103.068C122.902 103.292 122.604 103.527 122.334 103.755C122.011 103.937 121.694 104.167 121.37 104.448L120.552 105.136C119.959 105.636 119.412 106.145 118.918 106.651C118.364 107.203 117.864 107.729 117.412 108.24C116.959 108.787 116.527 109.312 116.115 109.817C115.703 110.323 115.339 110.803 115.022 111.265C114.703 111.724 114.432 112.156 114.203 112.573C113.932 112.937 113.73 113.26 113.588 113.536C113.407 113.807 113.298 114.021 113.251 114.151C113.251 114.203 113.23 114.224 113.178 114.224C113.183 114.364 113.162 114.495 113.12 114.636C112.844 115.869 112.579 117.063 112.307 118.208C112.036 119.172 111.771 120.109 111.495 121.021C111.495 120.932 111.495 120.839 111.495 120.749L111.093 122.333C110.864 123.063 110.64 123.771 110.416 124.459C110.37 124.688 110.303 124.917 110.208 125.145C110.303 125.052 110.391 124.989 110.484 124.937C110.85 124.615 111.214 124.317 111.579 124.047C112.584 123.307 113.698 122.683 114.932 122.177C117.579 121.156 120.35 120.828 123.23 121.177C124.558 121.355 125.864 121.391 127.146 121.297C128.375 121.156 129.584 120.901 130.776 120.531C133.057 119.604 134.902 118.38 136.318 116.864C137.73 115.396 138.708 114.109 139.246 113.011C139.798 111.912 140.068 111.36 140.068 111.36C140.068 111.36 139.839 111.932 139.386 113.079C138.938 114.224 138.074 115.625 136.803 117.276C135.479 118.927 133.609 120.355 131.193 121.557C129.964 122.109 128.656 122.505 127.282 122.735C125.912 122.973 124.522 123.047 123.104 122.964C120.495 122.885 118.094 123.375 115.907 124.432C114.255 125.265 112.918 126.281 111.864 127.473C111.594 127.792 111.323 128.093 111.052 128.369C109.912 129.885 109.136 131.167 108.735 132.224C108.688 132.265 108.646 132.333 108.599 132.427C108.459 132.697 109.438 135.416 111.516 140.579C113.599 145.74 117.558 151.807 123.396 158.776C122.527 158.645 119.964 153.855 115.714 144.401C116.912 146.136 118.224 147.937 119.651 149.803C125.542 157.645 129.688 164.697 132.099 170.953C130.224 171.188 128.416 171.609 126.683 172.213C121.662 164.229 118.828 159.943 118.183 159.355C119.5 167.807 118.391 174.511 114.839 179.469C111.334 182.917 109.563 184.839 109.516 185.255C109.47 185.073 108.37 183.817 106.208 181.495C111.355 176.031 111.844 168.615 107.688 159.26C103.303 150.407 100.459 142.917 99.1508 136.792C98.5522 136.333 97.8855 135.907 97.1508 135.495ZM96.3442 186C100.334 187.536 103.542 188.943 105.97 190.213C103.678 188.484 101.474 187.005 99.3695 185.781C91.7496 181.651 85.5882 179.459 80.8747 179.208C76.1617 178.953 73.7403 178.964 73.6095 179.24C79.9122 177.749 85.7652 177.86 91.172 179.573C96.5308 181.245 100.86 183.235 104.172 185.552C105.36 186.281 106.349 186.943 107.125 187.531C106.391 186.849 105.656 186.167 104.918 185.484C99.0935 180.749 93.8642 177.844 89.2403 176.765C84.6147 175.688 82.1668 175.245 81.8908 175.427C87.8387 174.855 93.2138 175.88 98.0269 178.516C102.798 181.099 106.167 183.369 108.146 185.328C109.016 186.104 109.474 186.516 109.522 186.557C109.522 186.516 109.932 186.12 110.75 185.391C112.708 183.412 116.088 181.088 120.88 178.412C125.672 175.74 131.036 174.661 136.99 175.183C136.714 175 134.246 175.495 129.579 176.656C124.922 177.776 119.678 180.771 113.839 185.645C113.203 186.245 112.541 186.864 111.86 187.511C112.636 186.959 113.527 186.36 114.527 185.713C117.812 183.369 122.146 181.292 127.536 179.484C132.974 177.672 138.896 177.484 145.307 178.921C145.167 178.645 142.698 178.683 137.896 179.021C133.052 179.317 126.746 181.677 118.99 186.109C117.074 187.26 115.115 188.62 113.109 190.183C115.255 189.027 118.058 187.735 121.531 186.303C130.522 182.193 140.511 180.432 151.495 181.021C152.495 181.156 153.506 181.333 154.516 181.552C154.464 181.511 153.506 181.495 151.631 181.505C146.87 181.156 138.943 182.932 127.85 186.817C122.088 189.088 116 192.521 109.568 197.131C102.412 192.125 95.7188 188.541 89.484 186.375C79.1772 183.036 71.8122 181.536 67.3747 181.875C65.448 181.885 64.4695 181.912 64.4215 181.953C65.4267 181.724 66.459 181.536 67.5054 181.396C77.9319 180.661 87.5471 182.193 96.3442 186ZM42.672 42.9013C61.0267 24.8907 83.0575 15.672 108.766 15.2347C134.474 15.3907 156.563 24.416 175.027 42.3173C193.088 60.672 202.307 82.6974 202.693 108.407C202.656 129.724 196.265 148.776 183.531 165.584C182.396 166.959 180.875 168.651 178.959 170.677C177.683 171.823 175.678 173.183 172.938 174.749C173.803 173.052 174.271 170.145 174.344 166.027C174.531 166.901 172.918 169.464 169.506 173.735C166.042 178.011 159.626 178.855 150.235 176.292C149.183 175.839 148.131 175.297 147.068 174.661C142.85 172.161 138.87 170.896 135.115 170.869C132.896 164.932 129.156 158.245 123.912 150.812C125.088 148.937 125.677 147.625 125.677 146.901C128.255 150.136 130.042 151.068 131.042 149.688C132.042 148.265 132.516 147.323 132.474 146.869C134.307 148.183 135.224 148.183 135.219 146.855C135.214 145.527 135.14 144.729 134.995 144.459C138.579 146.912 140.588 146.855 141.036 144.287C141.432 141.771 141.547 140.24 141.36 139.693C144.235 139.088 145.219 137.984 144.292 136.385C145.76 137.021 146.807 136.765 147.448 135.615C148.083 134.469 148.375 133.781 148.328 133.552C150.079 136.844 151.667 138.412 153.083 138.271C154.506 138.125 155.229 137.917 155.276 137.636C156.609 139.005 157.735 139.344 158.64 138.651C159.599 137.964 160.104 137.505 160.151 137.271C162.542 140.193 164.328 141.24 165.511 140.407C166.213 143.927 167.251 145.5 168.62 145.125C169.99 144.803 170.771 144.479 170.948 144.156C174.287 143.729 175.61 142.719 174.918 141.12C177.115 142.073 178.355 141.88 178.62 140.557C178.886 139.229 178.953 138.427 178.812 138.156C181.651 138.323 183 137.907 182.86 136.901C182.667 135.891 182.459 135.303 182.229 135.115C183.459 132.921 183.656 131.083 182.828 129.625C181.995 128.167 181.47 127.391 181.235 127.303C183.891 128.115 185.88 127.921 187.203 126.729C188.479 125.573 189.115 124.864 189.115 124.588C190.636 126.593 191.803 127.255 192.625 126.563C193.489 125.833 193.922 125.344 193.922 125.115C195.839 123.599 196.104 122.573 194.735 122.027C197.563 121.464 198.844 120.636 198.563 119.541C198.24 118.396 197.932 117.76 197.661 117.62C199.021 114.964 199.104 113.136 197.907 112.131C196.672 111.131 195.912 110.677 195.64 110.771C197.271 107.151 197.099 104.932 195.131 104.12C193.156 103.303 191.973 102.964 191.563 103.104C191.453 99.2134 190.506 97.0267 188.719 96.5307C186.979 96.0787 185.969 95.9693 185.697 96.1973C183.891 91.9533 182.375 90.3854 181.145 91.4894C180.855 87.0934 179.745 84.948 177.828 85.0467C175.901 85.1973 174.803 85.4533 174.531 85.8173C173.006 81.2547 171.719 79.5414 170.667 80.688C170.792 77.6254 170.26 76.0733 169.074 76.0307C167.88 75.9893 167.194 76.0827 167.016 76.3173C165.631 74.172 164.416 73.4693 163.37 74.2027C162.318 74.984 161.771 75.516 161.724 75.792C159.984 75.2027 158.75 75.1614 158.022 75.672C158.782 71.5 158.407 69.4427 156.896 69.5C158.536 67.432 158.896 65.9894 157.974 65.172C157.058 64.3547 156.464 63.964 156.183 64.016C156.454 61.448 155.87 59.8747 154.448 59.2867C153.031 58.6973 152.183 58.448 151.912 58.5414C152.943 55.156 152.662 53.5787 151.063 53.812C152.194 50.1454 152.115 48.1827 150.834 47.912C149.594 47.6454 148.818 47.6253 148.5 47.8547C146.698 44.3387 145.088 42.792 143.677 43.208C142.307 43.6307 141.574 44.0213 141.484 44.3853C140.099 41.2813 138.834 40.188 137.698 41.1094C136.219 37.9174 134.636 36.5267 132.943 36.9427C131.208 37.412 130.276 37.8027 130.136 38.1253C128.984 36.5267 127.954 36.12 127.042 36.9013C126.131 37.7293 125.656 38.2547 125.609 38.4893C123.364 38.448 121.907 39.0733 121.224 40.36C119.162 39.4067 117.698 39.2507 116.834 39.9013C115.631 37.292 114.344 36.156 112.974 36.484C111.558 36.812 110.776 37.088 110.646 37.3173C108.167 35.8227 106.703 35.62 106.255 36.7187C105.328 34.62 104.022 33.964 102.334 34.7494C100.599 35.584 99.6402 36.1307 99.4535 36.4067C97.8548 35.4067 96.4122 35.552 95.1362 36.8387C93.9122 38.0787 93.2455 38.8334 93.1564 39.1094C92.0523 37.9267 90.6362 37.9587 88.9018 39.1973C87.1721 40.4427 86.2138 41.1974 86.0308 41.4787C83.0054 40.6667 80.584 40.792 78.76 41.8547C76.9319 42.9533 76.0002 43.604 75.9532 43.7867C73.1199 43.9373 71.7548 45.016 71.8548 47.0307C72.0002 49.0413 72.1882 50.208 72.4163 50.5213C68.3908 51.0413 66.5471 52.0827 66.8747 53.636C67.1564 55.1933 67.4788 56.0627 67.8496 56.24C66.1507 56.3387 65.2652 57.14 65.183 58.656C65.0986 60.1613 65.1256 61.036 65.2548 61.26C63.7496 60.9947 62.7653 61.5734 62.3174 62.9894C61.8695 64.36 61.6616 65.1667 61.7138 65.3907C60.2403 63.8907 58.9788 63.76 57.9376 64.9947C56.8439 66.2813 56.271 67.0627 56.2294 67.3387C54.8548 66.016 53.7351 66.0214 52.8695 67.3547C52.0002 68.6827 51.5523 69.5107 51.5106 69.828C47.3496 70.9013 45.5684 72.1613 46.172 73.6253C44.0215 73.9587 43.0471 74.948 43.2351 76.5933C43.4695 78.188 43.683 79.104 43.8642 79.3333C41.172 80.3547 40.0788 81.6614 40.5882 83.2547C36.7496 83.9174 34.8601 85.412 34.9122 87.74C34.9215 90.0307 35.0684 91.3333 35.3439 91.6507C32.8283 91.6147 31.7351 92.4213 32.0627 94.068C29.5054 96.0467 29.1934 97.5574 31.1147 98.604C33.0471 99.6454 34.26 100.161 34.7652 100.161C36.9215 101.708 38.2923 101.697 38.8804 100.145C39.396 103.297 40.2242 104.989 41.3747 105.208C38.8174 107.145 37.9319 108.453 38.7081 109.136C37.3387 109 36.4018 109.645 35.9122 111.063C35.4122 112.489 35.1882 113.312 35.2351 113.541C32.5789 112.271 31.0414 112.349 30.6362 113.771C27.6617 113.505 26.1617 114.697 26.1257 117.355C26.1362 120.057 26.26 121.631 26.4898 122.083C24.9428 124.473 24.9319 126.208 26.4428 127.303C27.9122 128.344 28.807 128.875 29.1309 128.869C28.9481 130.651 30.26 131.448 33.0471 131.255C35.8804 131.104 37.5054 130.937 37.9174 130.749C36.7403 133.088 36.8804 134.531 38.3496 135.068C39.8122 135.615 40.708 135.839 41.0267 135.745C41.183 138.807 41.8439 139.973 43.0308 139.235C42.5002 142.667 42.9428 144.38 44.3548 144.375C44.8695 146.891 45.6975 147.573 46.8387 146.421C47.9788 145.229 48.6147 144.448 48.7496 144.083C52.5471 144.568 55.1308 144.104 56.495 142.677C57.5575 144.817 58.6362 145.432 59.7294 144.516C60.8174 143.593 61.4122 142.973 61.5002 142.651C62.9736 144.161 64.5789 144.584 66.3122 143.932C68.0934 143.287 69.0788 142.849 69.26 142.62C68.86 145.688 69.3496 147.536 70.7242 148.172C72.1455 148.76 72.9695 148.979 73.1934 148.849C74.995 152.177 76.3908 152.86 77.3908 150.885C78.3908 148.917 78.907 147.651 78.9532 147.104C81.2975 149.104 82.8029 149.369 83.4789 147.907C84.1617 146.437 84.4788 145.527 84.4376 145.156C86.5414 146.891 88.1934 147.156 89.3747 145.959C90.6095 144.724 91.2242 143.943 91.219 143.62L95.0789 147.036L99.5415 147.563C100.974 151.489 102.85 155.803 105.151 160.5C108.246 166.62 108.542 172.041 106.047 176.76C105.552 177.724 104.938 178.667 104.208 179.584C100.812 176.303 96.3175 173.74 90.7294 171.885C85.0934 170.041 78.7814 171.073 71.8028 174.995C70.7548 175.636 69.7294 176.188 68.7242 176.656C59.3122 179.303 52.8804 178.511 49.4319 174.271C45.9319 170.027 44.2762 167.479 44.4532 166.604C44.5627 170.719 45.0575 173.625 45.9376 175.312C43.4163 173.907 41.5106 172.636 40.2242 171.495C37.0054 168.219 34.896 165.849 33.8804 164.391C21.9174 148.115 15.8174 129.729 15.5934 109.235C15.7497 83.484 24.7762 61.3693 42.672 42.9013ZM108.746 11.0467C81.0308 11.8547 58.0163 21.4947 39.7138 39.9693C21.4018 58.4373 11.9695 81.5307 11.407 109.255C12.2138 136.927 21.8548 159.912 40.3283 178.224C58.7923 196.527 81.8908 205.964 109.615 206.527C137.287 205.714 160.271 196.079 178.584 177.609C196.886 159.136 206.317 136.068 206.88 108.385C206.073 80.672 196.432 57.6613 177.97 39.3547C159.495 21.0467 136.422 11.6094 108.746 11.0467Z" fill="#FA4238"/>
<path fill-rule="evenodd" clip-rule="evenodd" d="M109.557 209.541C81.0053 208.943 57.2027 199.208 38.1361 180.355C19.1146 161.459 9.17714 137.74 8.31727 109.197C8.9266 80.6507 18.6506 56.844 37.5053 37.7813C56.4017 18.7547 80.1198 8.82265 108.661 7.95865C137.208 8.56798 161.016 18.292 180.079 37.1453C199.104 56.0467 209.041 79.7653 209.901 108.303C209.297 136.855 199.568 160.656 180.713 179.724C161.812 198.745 138.099 208.688 109.557 209.541ZM108.625 -7.38073e-06C77.8027 0.911993 52.2079 11.64 31.8495 32.1773C11.4949 52.7187 1.00007 78.4013 0.354736 109.235C1.27087 140.063 12.0001 165.656 32.5307 186.011C53.0735 206.364 78.7599 216.864 109.588 217.505C140.421 216.588 166.011 205.86 186.364 185.328C206.719 164.792 217.219 139.104 217.86 108.271C216.948 77.4427 206.219 51.8547 185.683 31.4947C165.151 11.14 139.464 0.639993 108.625 -7.38073e-06Z" fill="#0005FF"/>
<path fill-rule="evenodd" clip-rule="evenodd" d="M135.079 130.864C134.344 130.735 133.521 130.557 132.604 130.328C132.188 130.193 131.755 130.104 131.297 130.063C130.839 129.973 130.401 129.907 129.995 129.86C128.161 129.593 126.401 129.531 124.708 129.677C121.188 130.063 118.145 130.896 115.599 132.193C114.541 132.697 113.604 133.208 112.792 133.708C113.021 134.901 113.255 136.016 113.489 137.073C113.713 136.932 113.921 136.792 114.104 136.656C114.927 136.011 115.885 135.391 116.979 134.792C119.167 133.5 121.817 132.599 124.921 132.079C126.484 131.891 128.079 131.833 129.724 131.917C130.188 131.964 130.599 132.005 130.964 132.052C131.421 132.099 131.833 132.161 132.197 132.251C133.068 132.385 133.984 132.521 134.943 132.651C136.823 132.781 138.625 132.568 140.36 132.011C142.099 131.407 143.651 130.604 145.021 129.588C147.708 127.469 149.755 125.251 151.167 122.907C152.62 120.615 153.64 118.755 154.229 117.339C154.817 115.869 155.109 115.115 155.109 115.068C155.109 115.115 154.765 115.844 154.088 117.265C153.407 118.645 152.297 120.407 150.749 122.563C149.208 124.765 147.088 126.787 144.401 128.631C143.073 129.552 141.615 130.197 140.011 130.573C138.369 130.989 136.724 131.088 135.079 130.864Z" fill="white"/>
<path fill-rule="evenodd" clip-rule="evenodd" d="M79.2027 96.12C79.6667 96.208 80.1454 96.328 80.6506 96.4587C80.9214 96.5053 81.1974 96.5733 81.4735 96.6613C81.7495 96.7547 82.0469 96.844 82.364 96.932C82.964 97.068 83.5787 97.2707 84.224 97.5414C84.8599 97.7187 85.5265 97.9693 86.2136 98.2867C86.8547 98.516 87.5 98.8067 88.1402 99.1667C88.8282 99.4893 89.4694 99.8067 90.0683 100.125C90.7079 100.484 91.3027 100.849 91.8495 101.208C92.7292 101.76 93.5307 102.281 94.2599 102.781L95.0213 103.464C95.984 104.369 96.812 105.333 97.5053 106.333C97.9173 106.927 98.2654 107.547 98.5414 108.183C99.0414 107.312 99.5414 106.511 100.041 105.776C99.8547 105.5 99.6453 105.229 99.416 104.953C98.5413 103.812 97.5107 102.787 96.312 101.875L95.4893 101.265C95.2188 101.041 94.9375 100.833 94.6615 100.651C94.1563 100.197 93.6771 99.7187 93.2136 99.2133C92.2505 98.26 91.4479 97.188 90.7973 96.0054C90.1563 94.86 89.7401 93.6507 89.5521 92.3693C89.364 91.088 89.4016 89.88 89.6719 88.7347C89.9427 87.5467 90.3027 86.4947 90.7495 85.5734C91.7547 83.6934 92.7079 82.2974 93.6197 81.3747C94.4839 80.4587 94.9375 79.9947 94.9839 79.9947C94.9375 79.9947 94.4588 80.412 93.5469 81.24C92.5469 82.1147 91.4588 83.464 90.276 85.3027C89.724 86.2653 89.276 87.344 88.9172 88.5307C88.5104 89.7707 88.3547 91.0933 88.4531 92.516C88.5522 93.8853 88.9016 95.2547 89.5 96.6253C90.0573 97.7653 90.7188 98.844 91.5 99.8387C91.188 99.6614 90.8438 99.5 90.4694 99.3693C89.8334 99.0467 89.1667 98.7547 88.4787 98.4787C87.7922 98.1667 87.1041 97.8907 86.4161 97.672C85.7292 97.4427 85.0412 97.24 84.3547 97.0627C83.7136 96.8333 83.0735 96.6774 82.4317 96.588C82.1615 96.5 81.8599 96.432 81.536 96.3907C81.2651 96.2974 80.9896 96.2507 80.7188 96.2547C80.1667 96.1147 79.6667 96.0267 79.2027 95.984C78.7922 95.9427 78.4266 95.9214 78.1042 95.9214C77.4162 95.8334 77.0735 95.7867 77.0735 95.7867C77.0735 95.7867 77.3959 95.8547 78.0412 95.9894C78.3599 96.0307 78.7495 96.0787 79.2027 96.12Z" fill="white"/>
<path fill-rule="evenodd" clip-rule="evenodd" d="M70.6615 103.776C70.8437 104.14 71.0307 104.552 71.2188 105.011C71.4479 105.469 71.7027 105.921 71.9735 106.38C72.2079 106.88 72.4839 107.38 72.8068 107.885C73.0828 108.385 73.3855 108.891 73.7027 109.391C74.0787 109.937 74.4427 110.459 74.812 110.964C75.224 111.511 75.6401 112.057 76.0573 112.604C76.464 113.104 76.9016 113.631 77.364 114.177C77.8745 114.677 78.3547 115.203 78.8172 115.745C79.8229 116.749 80.8855 117.729 81.9787 118.688C86.4375 122.323 90.7708 125.027 94.9896 126.792C95.1719 126.927 95.3747 127.041 95.6093 127.136C95.88 127.265 96.156 127.38 96.4267 127.473C96.1507 126.287 95.9173 125.145 95.724 124.047C95.5 123.953 95.2505 123.864 94.9735 123.776C91.1255 122.328 87.1615 120.172 83.0735 117.307C81.9265 116.489 80.8437 115.625 79.8385 114.713C79.2864 114.213 78.7812 113.74 78.3229 113.276C77.8172 112.823 77.3385 112.344 76.8745 111.849C76.4161 111.349 75.9787 110.864 75.5625 110.412C75.1505 109.912 74.7599 109.427 74.3907 108.973C74.0213 108.473 73.6771 108 73.3547 107.536C73.036 107.036 72.7136 106.557 72.3855 106.099C72.1145 105.693 71.8599 105.26 71.6255 104.803C71.3495 104.391 71.1255 104.005 70.9317 103.64C70.5265 102.864 70.1771 102.183 69.8959 101.588C69.3907 100.443 69.1401 99.8494 69.1401 99.8067C69.1401 99.8494 69.3437 100.469 69.7651 101.651C69.9896 102.245 70.2973 102.959 70.6615 103.776Z" fill="white"/>
<path fill-rule="evenodd" clip-rule="evenodd" d="M56.1564 127.787C58.4069 129.927 61.3641 131.631 65.0308 132.891C66.86 133.479 68.7865 133.812 70.7974 133.896C72.8121 134.027 74.8438 133.907 76.9017 133.527C77.8641 133.385 78.823 133.224 79.7813 133.036C80.7402 132.849 81.6772 132.703 82.5933 132.609C84.5105 132.464 86.3438 132.479 88.0829 132.656C91.0574 132.964 93.6454 133.683 95.8441 134.812C96.3068 135.041 96.7401 135.271 97.1508 135.495C97.8854 135.907 98.5268 136.333 99.0788 136.797C100.432 142.917 103.276 150.407 107.615 159.26C111.776 168.573 111.303 175.984 106.208 181.495C108.369 183.817 109.448 185.073 109.448 185.255C109.536 184.844 111.333 182.917 114.839 179.469C118.391 174.511 119.5 167.807 118.183 159.355C118.828 159.943 121.661 164.229 126.683 172.213C128.375 171.609 130.177 171.188 132.099 170.953C129.688 164.74 125.521 157.693 119.584 149.803C118.203 147.937 116.912 146.136 115.713 144.401C119.964 153.855 122.527 158.645 123.396 158.776C117.557 151.807 113.599 145.74 111.516 140.579C109.437 135.416 108.459 132.697 108.599 132.427C108.645 132.333 108.667 132.265 108.667 132.224C109.115 131.167 109.912 129.885 111.052 128.369C111.276 128.093 111.552 127.792 111.864 127.473C112.917 126.281 114.255 125.265 115.907 124.432C118.052 123.375 120.448 122.885 123.104 122.964C124.521 123.047 125.912 122.973 127.281 122.735C128.656 122.505 129.964 122.109 131.193 121.557C133.609 120.355 135.459 118.927 136.729 117.276C138.005 115.579 138.891 114.177 139.385 113.079C139.839 111.932 140.041 111.36 139.995 111.36C140.041 111.36 139.797 111.912 139.245 113.011C138.656 114.068 137.683 115.355 136.317 116.864C134.901 118.38 133.036 119.604 130.703 120.531C129.563 120.901 128.355 121.156 127.073 121.297C125.844 121.391 124.557 121.355 123.229 121.177C120.349 120.828 117.579 121.156 114.932 122.177C113.697 122.683 112.584 123.307 111.579 124.047C111.167 124.317 110.803 124.615 110.484 124.937C110.391 124.989 110.303 125.031 110.208 125.079C110.255 124.891 110.328 124.688 110.416 124.459C110.64 123.771 110.864 123.063 111.093 122.333L111.495 120.749C111.495 120.839 111.495 120.932 111.495 121.021C111.771 120.109 112.016 119.172 112.24 118.208C112.557 117.063 112.844 115.869 113.12 114.636C113.161 114.495 113.183 114.364 113.177 114.224C113.177 114.224 113.208 114.203 113.251 114.151C113.297 114.021 113.407 113.807 113.588 113.536C113.729 113.26 113.932 112.937 114.203 112.573C114.432 112.156 114.703 111.724 115.021 111.265C115.339 110.803 115.703 110.323 116.115 109.817C116.473 109.312 116.907 108.787 117.412 108.24C117.864 107.729 118.344 107.203 118.844 106.651C119.391 106.145 119.959 105.636 120.552 105.136L121.369 104.375C121.693 104.193 121.989 103.984 122.26 103.755C122.584 103.527 122.875 103.292 123.151 103.068C123.469 102.875 123.792 102.693 124.104 102.511C124.385 102.328 124.677 102.14 125 101.959C125.317 101.817 125.615 101.656 125.885 101.473C126.156 101.339 126.437 101.197 126.708 101.057C127.031 100.921 127.303 100.803 127.527 100.708C128.079 100.527 128.584 100.339 129.036 100.156C129.495 100.016 129.885 99.9013 130.208 99.8066C130.844 99.6253 131.183 99.5306 131.235 99.5306C131.183 99.5306 130.823 99.5986 130.136 99.74C129.812 99.8333 129.427 99.9213 128.969 100.016C128.511 100.156 128.011 100.323 127.464 100.505C127.183 100.557 126.912 100.645 126.64 100.781C126.317 100.875 126.027 100.995 125.749 101.131C125.432 101.271 125.109 101.407 124.787 101.547C124.473 101.729 124.151 101.891 123.828 102.036C123.511 102.219 123.193 102.401 122.875 102.584C122.552 102.771 122.24 102.979 121.917 103.203C121.593 103.391 121.276 103.599 120.959 103.828L120 104.516C119.407 104.979 118.817 105.459 118.224 105.969C117.631 106.432 117.083 106.932 116.579 107.484C116.083 107.989 115.604 108.5 115.151 109C114.693 109.505 114.281 109.989 113.917 110.448C114.052 109.344 114.183 108.271 114.317 107.224C114.453 105.943 114.557 104.729 114.645 103.584C114.688 102.349 114.703 101.197 114.697 100.151C114.645 99.052 114.599 98.0213 114.547 97.0626C114.407 96.1506 114.287 95.3066 114.193 94.5306C114.145 94.1613 114.073 93.8173 113.984 93.5C113.932 93.1306 113.864 92.8386 113.771 92.604C113.541 91.5106 113.416 90.9426 113.416 90.8906C113.416 90.9426 113.489 91.5106 113.636 92.6093C113.683 92.88 113.729 93.1826 113.776 93.5C113.823 93.8173 113.849 94.1613 113.849 94.5306C113.901 95.3066 113.948 96.1773 114 97.136C113.953 98.052 113.917 99.0306 113.875 100.083C113.787 101.183 113.677 102.303 113.547 103.453C113.364 104.593 113.167 105.765 112.943 106.948C112.677 108.188 112.407 109.401 112.136 110.593C111.823 111.787 111.484 112.973 111.12 114.161C110.76 115.312 110.38 116.432 109.973 117.531C109.615 118.631 109.224 119.661 108.817 120.625C108.5 121.495 108.161 122.317 107.803 123.099C107.755 123.188 107.708 123.307 107.667 123.443C107.079 124.771 106.579 125.896 106.172 126.812C104.828 123.203 103.989 120.145 103.656 117.625C103.609 116.667 103.631 115.708 103.713 114.745C103.891 113.416 104.136 112.073 104.453 110.697C104.812 109.364 105.24 108.104 105.74 106.917C105.787 106.828 105.807 106.755 105.807 106.708C106.125 106.068 106.416 105.421 106.688 104.787C106.869 104.464 107.052 104.167 107.24 103.885C107.369 103.573 107.531 103.251 107.708 102.927C108.349 101.552 108.729 100.177 108.86 98.8026C108.989 97.4786 108.891 96.24 108.573 95.0986C108.245 94.0053 107.828 93.068 107.317 92.292C106.812 91.516 106.333 90.9013 105.869 90.448C104.907 89.536 104.401 89.0826 104.36 89.0826C104.401 89.0826 104.839 89.5786 105.667 90.584C106.083 91.088 106.5 91.7293 106.907 92.5053C107.281 93.3226 107.536 94.26 107.677 95.3066C107.823 96.3173 107.735 97.396 107.416 98.536C107.099 99.6826 106.579 100.781 105.855 101.833C105.489 102.391 105.083 102.937 104.625 103.489C104.401 103.807 104.193 104.131 104.011 104.453C103.245 106.333 102.636 108.188 102.183 110.021C102.093 110.203 102.052 110.385 102.052 110.568C100.083 121.099 100.464 129.989 103.197 137.251C105.927 144.516 107.568 148.303 108.125 148.62C103.568 143.011 100.317 137.88 98.3801 133.229C98.1454 132.724 97.9374 132.251 97.7548 131.787C96.9734 131.469 96.1508 131.197 95.2813 130.979C94.8173 130.844 94.3856 130.703 93.9788 130.573C93.0574 130.396 92.1198 130.255 91.1616 130.172C90.2454 130.036 89.2813 129.973 88.2761 129.979C86.3069 129.943 84.3386 130.088 82.3746 130.412C81.3746 130.604 80.3694 130.812 79.36 131.052L77.9214 131.464L76.484 131.812C74.6564 132.235 72.7761 132.473 70.86 132.521C68.9428 132.584 67.0829 132.385 65.2974 131.932C63.5626 131.484 61.9318 130.849 60.4162 130.036C58.948 129.265 57.6454 128.401 56.5001 127.443C55.3028 126.536 54.3121 125.62 53.5308 124.708C52.7496 123.803 52.1094 122.979 51.6042 122.251C50.6361 120.792 50.1506 120.041 50.1506 119.989C50.1506 120.041 50.6146 120.812 51.5308 122.317C52.4069 123.875 53.948 125.693 56.1564 127.787Z" fill="white"/>
<path fill-rule="evenodd" clip-rule="evenodd" d="M151.557 181.505C153.484 181.495 154.443 181.511 154.443 181.552C153.484 181.333 152.473 181.156 151.421 181.021C140.443 180.432 130.479 182.193 121.531 186.303C118.016 187.781 115.183 189.073 113.041 190.183C115.093 188.62 117.073 187.26 118.989 186.109C126.745 181.729 133.027 179.364 137.823 179.027C142.677 178.683 145.167 178.645 145.307 178.921C138.849 177.484 132.927 177.672 127.536 179.484C122.104 181.292 117.745 183.369 114.464 185.713C113.459 186.36 112.588 186.979 111.86 187.573C112.5 186.885 113.156 186.245 113.839 185.645C119.677 180.817 124.921 177.823 129.579 176.656C134.245 175.495 136.713 175 136.989 175.183C130.995 174.661 125.599 175.74 120.807 178.412C116.016 181.131 112.667 183.453 110.749 185.391C109.885 186.12 109.453 186.516 109.453 186.557C109.453 186.516 109.016 186.104 108.145 185.328C106.167 183.369 102.776 181.099 97.9641 178.516C93.1933 175.88 87.8386 174.855 81.8907 175.427C82.1198 175.245 84.5413 175.688 89.1667 176.765C93.8438 177.896 99.0934 180.797 104.917 185.484C105.656 186.167 106.364 186.869 107.057 187.599C106.276 186.964 105.312 186.281 104.172 185.552C100.817 183.281 96.4641 181.287 91.1042 179.573C85.7454 177.86 79.9121 177.749 73.6094 179.24C73.7402 178.964 76.1615 178.953 80.8746 179.208C85.5881 179.505 91.7547 181.719 99.3694 185.855C101.473 187.073 103.651 188.527 105.907 190.213C103.521 188.984 100.333 187.584 96.3441 186C87.547 182.193 77.9121 180.661 67.4427 181.396C66.4318 181.536 65.4266 181.724 64.4214 181.953C64.4694 181.912 65.4266 181.885 67.3069 181.88C71.7402 181.579 79.1361 183.079 89.4839 186.375C95.6721 188.541 102.344 192.125 109.5 197.131C115.979 192.521 122.068 189.088 127.776 186.817C138.921 182.932 146.844 181.156 151.557 181.505Z" fill="white"/>
<path fill-rule="evenodd" clip-rule="evenodd" d="M77.0052 187.041C73.5683 185.875 69.7708 185.412 65.6042 185.661C59.3855 185.869 55.2651 185.021 53.2454 183.104C51.1771 181.193 50.235 180.079 50.4162 179.755C50.1932 179.937 50.5839 180.943 51.5984 182.765C52.6563 184.636 55.864 186.36 61.224 187.943C63.2864 188.479 65.8027 188.901 68.7812 189.208C78.0683 190.36 84.5266 191.932 88.1454 193.927C91.724 195.927 93.4479 197.011 93.3068 197.203C93.2136 196.969 91.724 195.672 88.8282 193.307C85.9427 190.937 81.9948 188.855 77.0052 187.041Z" fill="white"/>
<path fill-rule="evenodd" clip-rule="evenodd" d="M168.5 179.229C168.64 179.552 167.708 180.677 165.697 182.604C163.697 184.536 159.584 185.421 153.36 185.271C147.964 185.063 143.213 185.912 139.104 187.797C130.568 192.64 126.12 195.724 125.765 197.057C125.584 196.869 127.292 195.765 130.896 193.735C134.5 191.708 140.943 190.079 150.219 188.849C150.271 188.807 150.339 188.776 150.427 188.776C159.344 187.459 164.683 185.604 166.459 183.219C168.235 180.833 168.912 179.5 168.5 179.229Z" fill="white"/>
<path d="M256.297 63.1866C256.297 64.0771 256.036 64.7651 255.527 65.2495C255.027 65.724 254.412 65.9574 253.693 65.9574C252.443 65.9574 251.386 66.1042 250.527 66.3948C249.344 66.9266 248.245 67.3855 247.234 67.7708C247.162 67.9683 247.12 68.6615 247.109 69.8532C247.093 71.036 247.088 72.0199 247.088 72.812C247.088 74.0199 247.088 75.0308 247.088 75.8334C247.088 76.6402 247.098 77.3746 247.131 78.0412C247.755 77.5147 248.234 77.135 248.568 76.8959C249.609 76.1042 250.281 75.7079 250.589 75.7079C251.672 75.7079 252.656 76.1558 253.546 77.0412C254.432 77.9318 254.88 78.8532 254.88 79.812C254.88 80.2708 254.755 80.7079 254.505 81.124C254.256 81.5308 253.932 81.7282 253.546 81.7282C251.005 81.7282 249.115 82.3427 247.88 83.5626C247.672 83.7599 247.453 84.0574 247.234 84.4574L247.172 91.6042C247.24 91.7708 247.276 91.9052 247.276 92C247.443 92.6975 247.489 93.224 247.421 93.5828C247.131 95.1923 246.032 96 244.131 96C243.24 96 242.391 95.635 241.589 94.9162C240.781 94.1975 240.322 93.536 240.213 92.9375L241.256 91.5626L241.213 63.0412C241.213 62.4162 241.443 61.8907 241.901 61.4574C242.36 61.0308 243.046 60.812 243.964 60.812C244.172 60.812 244.322 60.812 244.421 60.812C244.88 60.8532 245.516 61.1042 246.339 61.5626C246.475 61.635 246.641 61.7282 246.839 61.8532C247.098 61.9948 247.964 61.7188 249.421 61.0199C250.88 60.3282 251.776 59.9787 252.109 59.9787C253.093 59.9787 254.036 60.3334 254.943 61.0412C255.844 61.7495 256.297 62.4683 256.297 63.1866ZM274.662 72.6667C274.662 73.1975 274.265 73.6866 273.475 74.1454C272.557 74.536 271.651 74.9104 270.765 75.2708L263.765 83.312C263.792 84.9948 263.812 86.6667 263.828 88.3334C263.855 89.9891 263.896 90.8855 263.953 91.0199C264.162 91.3427 264.312 91.5984 264.412 91.7907C264.703 92.4162 264.849 92.948 264.849 93.3746C264.849 94.1975 264.516 94.848 263.849 95.3334C263.193 95.8334 262.421 96.0828 261.536 96.0828C260.645 96.0828 259.958 95.8746 259.475 95.4574C258.849 94.8907 258.536 94.036 258.536 92.8959C258.536 92.635 258.546 92.3694 258.579 92.1042C258.579 92.036 258.598 91.9162 258.641 91.7495L258.682 74.9787C258.557 74.7188 258.458 74.5 258.391 74.3334C258.151 73.7814 258.021 73.4162 257.995 73.2495C257.995 72.6975 258.375 72.2814 259.141 72C259.917 71.724 260.751 71.5828 261.641 71.5828C262.432 71.5828 263.079 71.6866 263.579 71.8959C264.088 72.1042 264.349 72.5094 264.349 73.1042C264.349 73.4948 264.141 73.9052 263.724 74.3334L263.765 76.1042L268.245 71.4162C268.579 71.0574 268.875 70.7814 269.141 70.5828C269.667 70.1558 270.276 69.9375 270.975 69.9375C272.016 69.9375 272.891 70.1814 273.598 70.6667C274.308 71.1402 274.662 71.8068 274.662 72.6667Z" fill="#FC4439"/>
<path d="M292.208 74.1454C292.208 74.536 292.088 74.9318 291.855 75.3334C291.614 75.724 291.5 76.0147 291.5 76.2079C291.5 81.1147 291.448 84.224 291.355 85.5412C291.088 88.9574 290.464 91.5574 289.479 93.3334C288.27 95.5 286.396 96.5828 283.855 96.5828C280.989 96.5828 278.984 95.0667 277.833 92.0412C276.984 89.8068 276.562 86.7027 276.562 82.7282C276.562 81.3855 276.584 80.0828 276.625 78.8334C276.677 77.5828 276.74 76.4318 276.812 75.3746C276.812 75.1147 276.776 74.7386 276.708 74.2495C276.636 73.7495 276.604 73.3855 276.604 73.1454C276.604 72.8532 276.677 72.4735 276.833 72C276.984 71.5147 277.333 71.124 277.875 70.8334C278.417 70.5412 279.046 70.3948 279.77 70.3948C280.562 70.3948 281.24 70.6042 281.812 71.0199C282.396 71.4266 282.688 71.9522 282.688 72.6042C282.688 73.0094 282.604 73.4375 282.437 73.8959C282.032 74.9787 281.833 75.7027 281.833 76.0615C281.833 77.1866 281.792 78.8334 281.708 81C281.625 83.1667 281.584 84.4683 281.584 84.8959C281.584 86.9683 281.719 88.5626 282 89.6866C282.292 90.8016 282.812 91.3532 283.563 91.3532C284.355 91.3532 284.964 90.3855 285.396 88.4375C285.948 85.8855 286.229 81.5771 286.229 75.5199C286.229 75.2599 286.177 74.848 286.084 74.2907C285.984 73.7386 285.937 73.3282 285.937 73.0615C285.937 72.5626 286.084 72.1814 286.375 71.9162C286.667 71.6558 287.193 71.5199 287.958 71.5199C289.01 71.5199 289.984 71.7814 290.875 72.2907C291.76 72.8068 292.208 73.4266 292.208 74.1454Z" fill="#FC4439"/>
<path d="M300.808 63.9374C300.808 64.1865 300.724 64.5521 300.557 65.0198C300.151 66.1349 299.953 67.2026 299.953 68.2292C299.953 68.4786 299.745 68.7188 299.328 68.9374C298.922 69.1453 298.479 69.2494 297.995 69.2494C297.688 69.2906 297.421 69.312 297.203 69.312C296.579 69.312 296.063 69.1813 295.662 68.9161C295.104 68.5146 294.828 67.8693 294.828 66.9786C294.828 66.8854 294.875 66.7708 294.975 66.6453C295.234 66.312 295.369 65.176 295.369 63.2292C295.369 62.9104 295.505 62.624 295.786 62.3745C296.063 62.124 296.62 61.9682 297.453 61.8958C298.172 61.8958 298.828 62.0146 299.412 62.2494C300.339 62.6146 300.808 63.176 300.808 63.9374ZM301.245 73.0614C301.245 73.4521 301.088 74.036 300.786 74.812C300.495 75.577 300.188 76.3532 299.869 77.1453V90.3745C300.088 90.8641 300.251 91.2708 300.349 91.6041C300.682 92.6188 300.849 93.5718 300.849 94.4573C300.849 95.0828 300.536 95.5666 299.912 95.9161C299.286 96.2598 298.579 96.4374 297.786 96.4374C296.729 96.4374 295.995 96.088 295.579 95.3948C294.979 94.4786 294.682 92.7598 294.682 90.2292L294.724 76.8958C294.667 76.4786 294.641 76.1401 294.641 75.8745C294.541 74.848 294.495 74.2026 294.495 73.9374C294.521 73.6453 294.536 73.4521 294.536 73.3532C294.631 72.6865 294.932 72.1401 295.432 71.7078C295.943 71.265 296.516 71.0412 297.141 71.0412C298.068 71.0412 298.984 71.2292 299.891 71.6041C300.792 71.9786 301.245 72.4682 301.245 73.0614Z" fill="#FC4439"/>
<path d="M319.027 73.0614C319.027 73.7188 318.88 74.2708 318.589 74.7281C318.308 75.1865 317.88 75.4161 317.297 75.4161C317.156 75.4573 316.76 75.3906 316.109 75.2078C315.453 75.0308 314.901 74.9683 314.443 75.0199L312.86 75.812V90.5198C312.86 91.0093 313.131 91.6865 313.672 92.5625C314.213 93.4374 314.484 94.1041 314.484 94.5625C314.484 95.2136 314.172 95.7495 313.546 96.1667C312.922 96.5828 312.151 96.7906 311.234 96.7906C309.984 96.7906 309.141 96.588 308.713 96.1865C307.891 95.4374 307.484 93.7437 307.484 91.1041L307.631 77.6865C307.365 77.9265 307.136 78.0932 306.943 78.1865C306.344 78.5199 305.719 78.6865 305.068 78.6865C304.369 78.6865 303.579 78.4573 302.693 78C301.808 77.5308 301.36 77 301.36 76.4161C301.36 75.724 301.724 75.2813 302.443 75.0828C304.027 74.6557 304.995 74.3426 305.36 74.1453L307.713 72.9573V69.1041C307.713 68.8854 307.609 68.5521 307.401 68.1041C307.193 67.6614 307.136 67.2854 307.234 66.9786C307.495 66.2292 307.891 65.6349 308.421 65.1865C308.948 64.7437 309.589 64.5199 310.339 64.5199C311.256 64.5199 312.073 64.8016 312.797 65.3532C313.516 65.9104 313.88 66.5828 313.88 67.3745C313.88 67.8068 313.651 68.348 313.193 69C313.136 69.1146 313.027 69.2651 312.86 69.4573V71.5828C313.385 71.1813 313.797 70.8958 314.088 70.7281C315.005 70.1453 315.641 69.8532 316.005 69.8532C316.932 69.8532 317.693 70.2292 318.276 70.9786C318.776 71.6041 319.027 72.3016 319.027 73.0614Z" fill="#FC4439"/>
<path d="M335.593 74C335.593 74.9161 334.937 75.5093 333.636 75.7708C330.344 76.4265 328.615 76.7855 328.448 76.8532V90.9573C328.448 91.5828 328.708 92.3281 329.24 93.1865C329.5 93.6453 329.781 94.1041 330.074 94.5625C329.849 95.9787 328.886 96.6865 327.177 96.6865C325.552 96.6865 324.541 96.0256 324.156 94.7079C323.765 93.3907 323.574 90.3641 323.574 85.624V78.1453L321.886 78.4375C320.969 78.4375 320.26 78.2599 319.76 77.8959C319.104 77.4375 318.781 76.6813 318.781 75.624C318.781 74.9052 319.407 74.4104 320.656 74.1453C321.907 73.8855 322.844 73.7027 323.469 73.6041C323.469 68.8281 324.074 65.2027 325.281 62.7281C326.5 60.2437 328.312 59 330.719 59C331.579 59 332.412 59.2027 333.219 59.6041C334.021 59.9948 334.427 60.3948 334.427 60.812C334.427 61.0521 333.427 61.9052 331.427 63.3745C329.437 64.8333 328.448 67.7651 328.448 72.1667C329.407 71.8068 330.145 71.5625 330.677 71.4375C331.203 71.3016 331.907 71.2292 332.781 71.2292C333.667 71.6865 334.265 72.036 334.574 72.2708C335.251 72.8016 335.593 73.3745 335.593 74Z" fill="#FC4439"/>
<path d="M353.104 74.1454C353.104 74.536 352.984 74.9318 352.751 75.3334C352.511 75.724 352.396 76.0147 352.396 76.2079C352.396 81.1147 352.344 84.224 352.251 85.5412C351.984 88.9574 351.36 91.5574 350.375 93.3334C349.167 95.5 347.292 96.5828 344.751 96.5828C341.885 96.5828 339.88 95.0667 338.729 92.0412C337.88 89.8068 337.458 86.7027 337.458 82.7282C337.458 81.3855 337.479 80.0828 337.521 78.8334C337.573 77.5828 337.636 76.4318 337.708 75.3746C337.708 75.1147 337.672 74.7386 337.604 74.2495C337.532 73.7495 337.5 73.3855 337.5 73.1454C337.5 72.8532 337.573 72.4735 337.729 72C337.88 71.5147 338.229 71.124 338.77 70.8334C339.312 70.5412 339.943 70.3948 340.667 70.3948C341.459 70.3948 342.136 70.6042 342.708 71.0199C343.292 71.4266 343.584 71.9522 343.584 72.6042C343.584 73.0094 343.5 73.4375 343.333 73.8959C342.927 74.9787 342.729 75.7027 342.729 76.0615C342.729 77.1866 342.688 78.8334 342.604 81C342.521 83.1667 342.479 84.4683 342.479 84.8959C342.479 86.9683 342.615 88.5626 342.896 89.6866C343.188 90.8016 343.708 91.3532 344.459 91.3532C345.251 91.3532 345.86 90.3855 346.292 88.4375C346.844 85.8855 347.125 81.5771 347.125 75.5199C347.125 75.2599 347.073 74.848 346.979 74.2907C346.88 73.7386 346.833 73.3282 346.833 73.0615C346.833 72.5626 346.979 72.1814 347.271 71.9162C347.563 71.6558 348.088 71.5199 348.855 71.5199C349.907 71.5199 350.88 71.7814 351.771 72.2907C352.656 72.8068 353.104 73.4266 353.104 74.1454Z" fill="#FC4439"/>
<path d="M361.786 94.3745C361.786 95.0521 361.464 95.6349 360.828 96.124C360.188 96.624 359.36 96.8745 358.349 96.8745C357.65 96.8745 356.964 96.6922 356.286 96.3333C355.62 95.9682 355.234 95.5 355.141 94.9161C355.068 94.448 355.084 94.0308 355.182 93.6666C355.541 92.4573 355.724 91.6865 355.724 91.3532V88.8333C355.724 85.6557 355.713 82.3745 355.702 79C355.688 75.624 355.661 72.6349 355.62 70.0199C355.589 67.4104 355.578 65.2494 355.578 63.5412L355.474 62C355.417 61.3745 355.729 60.8745 356.412 60.5C357.104 60.124 357.833 59.9374 358.598 59.9374C359.808 59.9374 360.63 60.0828 361.078 60.3745C361.521 60.6666 361.745 61.2078 361.745 62C361.745 62.5308 361.63 63.2385 361.412 64.124C361.338 64.4161 361.224 64.812 361.057 65.312V91.0614C361.057 91.5932 361.172 92.1666 361.412 92.7906C361.661 93.4161 361.786 93.948 361.786 94.3745Z" fill="#FC4439"/>
<path d="M401.713 94.312C401.713 95.0308 401.36 95.5412 400.65 95.8334C399.953 96.135 399.093 96.2907 398.068 96.2907C396.953 96.2907 395.828 95.8855 394.693 95.0828C393.552 94.2814 392.984 93.5626 392.984 92.9375C392.984 92.6454 393.114 92.2386 393.38 91.7079C393.974 90.5147 394.224 89.8068 394.13 89.5828L392.797 75.0199L385.338 91.7495C385.338 92.0147 385.349 92.5 385.38 93.2079C385.421 93.9162 385.442 94.4052 385.442 94.6667C385.442 95.4839 385.093 96.088 384.401 96.4787C383.718 96.8803 382.88 97.0828 381.88 97.0828C380.932 97.0828 380.026 96.7708 379.15 96.1454C378.276 95.5199 377.838 94.8746 377.838 94.2079C377.838 94.0147 377.869 93.7079 377.942 93.2907C378.01 92.8642 378.046 92.5412 378.046 92.3334C378.046 92.0147 377.974 91.7855 377.838 91.6454L371.63 75.0199L372.672 90.312C372.797 90.812 372.89 91.2079 372.964 91.5C373.156 92.3907 373.256 93.1147 373.256 93.6667C373.256 94.3642 372.922 94.9683 372.256 95.5C371.598 96.0256 370.901 96.2907 370.15 96.2907C369.26 96.2907 368.202 95.8803 366.984 95.0615C365.776 94.2438 365.172 93.4052 365.172 92.5412C365.13 92.2079 365.302 91.812 365.693 91.3532C366.093 90.8959 366.26 90.5719 366.193 90.3746L365.256 66.1042C365.057 65.6454 364.932 65.2855 364.88 65.0199C364.573 64.135 364.421 63.536 364.421 63.2292C364.421 62.4787 364.765 61.8855 365.464 61.4375C366.156 60.9948 366.964 60.7708 367.88 60.7708C369.948 60.7708 371.442 61.2292 372.36 62.1454C372.953 62.7188 373.322 63.7708 373.464 65.312L381.942 85.9375L391.505 63.9375C391.546 63.0094 391.63 62.3282 391.754 61.8959C392.213 60.5199 393.136 59.8334 394.526 59.8334C396.193 59.8334 397.552 60.3282 398.609 61.312C399.401 62.0615 399.797 62.7855 399.797 63.4787C399.797 63.812 399.598 64.2438 399.213 64.7708C399.073 64.9375 398.869 65.1667 398.609 65.4574L400.442 90.8532C400.734 91.4266 400.948 91.8532 401.088 92.1454C401.505 93.1042 401.713 93.8282 401.713 94.312Z" fill="#FC4439"/>
<path d="M419.754 90.312C419.754 91.6349 418.942 92.9104 417.317 94.1453C415.693 95.3803 413.86 96 411.817 96C409.15 96 407.177 94.8641 405.901 92.5828C404.776 90.6147 404.213 87.8855 404.213 84.3948C404.213 79.9265 405.088 76.4573 406.838 74C408.448 71.724 410.532 70.5828 413.088 70.5828C414.672 70.5828 415.974 71.0771 417.005 72.0615C418.141 73.1865 418.713 74.8016 418.713 76.8959C418.713 79.0771 417.926 81.2188 416.36 83.312C414.578 85.6865 412.26 87.3948 409.401 88.4375C409.426 89.176 409.51 89.724 409.65 90.0828C410.068 91.1975 410.922 91.7495 412.213 91.7495C413.63 91.7495 414.636 91.036 415.234 89.6041C415.844 88.176 416.412 87.4265 416.942 87.3532C417.469 87.3532 418.01 87.5719 418.568 88C419.36 88.5984 419.754 89.3693 419.754 90.312ZM414.526 77C414.526 76.5412 414.406 76.1557 414.172 75.8333C413.948 75.5 413.573 75.3333 413.046 75.3333C411.765 75.3333 410.781 76.1865 410.088 77.8959C409.39 79.6041 409.046 81.724 409.046 84.2495C409.906 84.0573 410.964 83.3016 412.213 81.9787C413.754 80.3427 414.526 78.6813 414.526 77Z" fill="#FC4439"/>
<path d="M438.38 94.0199C438.38 95.3385 437.26 96 435.027 96C434.235 96 433.683 95.948 433.38 95.8532C432.823 95.6453 432.547 95.2136 432.547 94.5625C432.516 94.4375 432.589 94.0771 432.755 93.4787C432.781 93.312 432.86 93.036 432.984 92.6453C432.427 93.5625 431.781 94.2708 431.047 94.7708C430.308 95.2547 429.412 95.5 428.36 95.5C426.317 95.5 424.719 94.4683 423.568 92.3948C422.412 90.3281 421.839 87.2855 421.839 83.2708C421.88 82.5771 421.901 82.1975 421.901 82.124C421.901 79.7907 422.536 77.4573 423.817 75.124C425.328 72.3641 427.109 70.9787 429.151 70.9787C429.735 70.9787 430.303 71.176 430.86 71.5625C431.427 71.9375 432.073 72.6667 432.797 73.7495V68.2292C432.865 67.9265 432.781 67.5573 432.547 67.124C431.948 65.9891 431.651 65.2188 431.651 64.812C431.651 64.1615 431.989 63.5521 432.672 62.9787C433.349 62.3948 434.099 62.1041 434.923 62.1041C435.74 62.1041 436.427 62.2599 436.984 62.5625C437.536 62.8532 437.932 63.3745 438.172 64.124C438.199 64.2495 438.213 64.4683 438.213 64.7708C438.213 65.4265 438.115 66.0828 437.923 66.7495C437.891 66.848 437.828 66.9948 437.735 67.1865L437.776 92.4375C437.912 92.676 438.011 92.8532 438.068 92.9787C438.276 93.4104 438.38 93.7599 438.38 94.0199ZM432.297 83.3745C432.297 81.724 432.027 80.0521 431.484 78.3532C430.943 76.6615 430.36 75.812 429.735 75.812C428.912 75.812 428.323 76.7385 427.964 78.5828C427.724 79.7651 427.609 81.3068 427.609 83.2079C427.609 83.7079 427.609 84.0412 427.609 84.2079C427.609 84.3068 427.609 84.4375 427.609 84.6041C427.579 84.8693 427.547 85.2385 427.505 85.7079C427.475 86.1813 427.464 86.536 427.464 86.7708C427.464 88.4787 427.661 89.6667 428.068 90.3333C428.484 90.9891 429.036 91.312 429.735 91.312C430.36 91.312 430.943 90.4573 431.484 88.7495C432.027 87.0308 432.297 85.2385 432.297 83.3745Z" fill="#FC4439"/>
<path d="M447.745 63.9374C447.745 64.1865 447.661 64.5521 447.495 65.0198C447.088 66.1349 446.891 67.2026 446.891 68.2292C446.891 68.4786 446.683 68.7188 446.265 68.9374C445.86 69.1453 445.417 69.2494 444.932 69.2494C444.625 69.2906 444.36 69.312 444.141 69.312C443.516 69.312 443 69.1813 442.599 68.9161C442.041 68.5146 441.765 67.8693 441.765 66.9786C441.765 66.8854 441.812 66.7708 441.912 66.6453C442.172 66.312 442.308 65.176 442.308 63.2292C442.308 62.9104 442.443 62.624 442.724 62.3745C443 62.124 443.557 61.9682 444.391 61.8958C445.109 61.8958 445.765 62.0146 446.349 62.2494C447.276 62.6146 447.745 63.176 447.745 63.9374ZM448.183 73.0614C448.183 73.4521 448.027 74.036 447.724 74.812C447.432 75.577 447.125 76.3532 446.808 77.1453V90.3745C447.027 90.8641 447.188 91.2708 447.287 91.6041C447.62 92.6188 447.787 93.5718 447.787 94.4573C447.787 95.0828 447.475 95.5666 446.849 95.9161C446.224 96.2598 445.516 96.4374 444.724 96.4374C443.667 96.4374 442.932 96.088 442.516 95.3948C441.917 94.4786 441.62 92.7598 441.62 90.2292L441.661 76.8958C441.604 76.4786 441.579 76.1401 441.579 75.8745C441.479 74.848 441.432 74.2026 441.432 73.9374C441.459 73.6453 441.475 73.4521 441.475 73.3532C441.568 72.6865 441.869 72.1401 442.369 71.7078C442.88 71.265 443.453 71.0412 444.079 71.0412C445.005 71.0412 445.923 71.2292 446.828 71.6041C447.729 71.9786 448.183 72.4682 448.183 73.0614Z" fill="#FC4439"/>
<path d="M471.38 92.5412C471.38 92.9734 471.151 93.5146 470.693 94.1666C470.093 94.9838 469.421 95.3948 468.672 95.3948C466.823 95.3948 465.573 94.5308 464.923 92.7906C464.724 92.2385 464.579 91.3641 464.484 90.1666C463.593 91.6557 462.803 92.7598 462.109 93.4786C459.969 95.7136 457.599 96.8333 455.005 96.8333C453.489 96.8333 452.235 96.2598 451.235 95.124C450.235 94 449.735 92.6453 449.735 91.0614C449.735 87.9682 450.912 85.5308 453.276 83.7494C454.093 83.124 456.297 82.0412 459.88 80.5C462.256 79.489 463.443 78.3693 463.443 77.1453C463.443 76.2598 463.068 75.7026 462.317 75.4786C462.079 75.4104 461.683 75.3745 461.131 75.3745C459.213 75.3745 457.489 76.1146 455.964 77.5828C454.432 79.0412 453.443 79.7708 452.984 79.7708C452.161 79.7708 451.511 79.5308 451.027 79.0412C450.552 78.5412 450.317 77.7437 450.317 76.6453C450.317 75.536 451.797 74.3426 454.755 73.0614C457.923 71.676 461.032 70.9786 464.088 70.9786C466.683 70.9786 468.297 73.2385 468.923 77.7494C469.256 81.5573 469.599 85.3532 469.964 89.1453C470.156 90.0932 470.443 90.8224 470.817 91.3333C471.193 91.848 471.38 92.2494 471.38 92.5412ZM463.797 82.624C461.781 83.6146 460.281 84.4052 459.297 85C456.265 86.8745 454.755 88.4374 454.755 89.6865C454.755 90.1453 454.923 90.5984 455.256 91.0412C455.589 91.489 455.984 91.724 456.443 91.7494C457.427 91.7494 458.593 91.0932 459.943 89.7708C461.745 87.9948 463.032 85.6146 463.797 82.624Z" fill="#FC4439"/>
<path d="M255.041 118.785C255.041 119.285 254.917 119.724 254.667 120.098C254.36 120.432 254.046 120.776 253.729 121.119L253.125 144.598C253.125 146.088 252.751 147.317 252 148.285C251.167 149.369 250 149.91 248.5 149.91C246.86 149.91 244.885 148.359 242.584 145.244C241.833 144.219 240.855 142.651 239.645 140.536C239.27 140.343 239.005 140.172 238.855 140.015C238.281 139.489 238 138.822 238 138.015C238 137.615 238.521 137.26 239.563 136.952C240.604 136.634 241.713 136.473 242.896 136.473C243.365 136.473 243.797 136.557 244.188 136.724C244.573 136.891 244.77 137.181 244.77 137.598C244.77 138.307 245.046 139.432 245.604 140.973C246.172 142.515 246.625 143.285 246.958 143.285C247.427 143.285 247.751 142.088 247.917 139.681C248.093 137.265 248.188 134.14 248.188 130.307C248.188 127.197 248.167 124.697 248.125 122.807C248.093 120.905 248.032 119.14 247.937 117.515C247.937 116.989 248.115 116.495 248.479 116.036C248.839 115.567 249.396 115.328 250.145 115.328C251.256 115.328 252.344 115.724 253.417 116.515C254.5 117.307 255.041 118.067 255.041 118.785ZM271.427 144.161C271.427 145.41 270.656 146.619 269.115 147.785C267.573 148.952 265.833 149.536 263.907 149.536C261.391 149.536 259.521 148.463 258.303 146.307C257.245 144.448 256.719 141.869 256.719 138.577C256.719 134.343 257.541 131.057 259.198 128.724C260.708 126.572 262.682 125.495 265.115 125.495C266.615 125.495 267.844 125.968 268.803 126.91C269.896 127.968 270.448 129.489 270.448 131.473C270.448 133.531 269.698 135.552 268.198 137.536C266.516 139.785 264.322 141.405 261.615 142.391C261.641 143.088 261.719 143.598 261.844 143.932C262.26 144.989 263.073 145.515 264.281 145.515C265.615 145.515 266.563 144.843 267.136 143.495C267.719 142.151 268.26 141.443 268.76 141.369C269.26 141.369 269.77 141.572 270.303 141.973C271.052 142.531 271.427 143.26 271.427 144.161ZM266.469 131.577C266.469 131.134 266.355 130.76 266.136 130.452C265.927 130.134 265.573 129.973 265.073 129.973C263.865 129.973 262.932 130.785 262.281 132.41C261.625 134.026 261.303 136.031 261.303 138.432C262.104 138.239 263.098 137.526 264.281 136.285C265.74 134.733 266.469 133.161 266.469 131.577Z" fill="#0007FF"/>
<path d="M287.01 143.098C287.01 145.031 286.322 146.661 284.948 147.995C283.584 149.328 281.989 149.995 280.156 149.995C278.349 149.995 276.604 148.91 274.926 146.744C273.426 144.785 272.786 143.509 273.01 142.91C273.104 142.634 273.417 142.385 273.948 142.161C274.474 141.943 275.016 141.828 275.573 141.828C277.224 141.828 278.302 142.515 278.802 143.891C279.302 145.265 279.937 145.952 280.719 145.952C281.093 145.952 281.369 145.615 281.552 144.932C281.745 144.239 281.844 143.489 281.844 142.681C279.869 141.281 278.156 139.88 276.698 138.473C275.114 136.948 274.322 135.224 274.322 133.307C274.322 131.214 274.926 129.405 276.136 127.891C277.355 126.364 278.869 125.598 280.677 125.598C282.385 125.598 283.702 126.067 284.636 126.995C285.562 127.927 286.032 129.281 286.032 131.057C286.032 131.239 286.141 131.615 286.365 132.181C286.489 132.489 286.552 132.755 286.552 132.973C286.552 133.724 286.302 134.4 285.802 134.995C285.302 135.577 284.636 135.869 283.802 135.869C282.926 135.869 282.302 135.672 281.926 135.265C281.453 134.765 281.219 133.817 281.219 132.41C281.219 131.943 281.219 131.598 281.219 131.391C281.219 130.796 281.167 130.364 281.073 130.098C280.989 129.839 280.77 129.703 280.426 129.703C279.969 129.703 279.656 129.952 279.489 130.452C279.333 130.952 279.26 131.672 279.26 132.598C279.26 134.031 280.552 135.588 283.136 137.265C285.719 138.948 287.01 140.891 287.01 143.098Z" fill="#0007FF"/>
<path d="M303.869 128.869C303.869 129.244 303.755 129.619 303.536 129.995C303.328 130.359 303.224 130.634 303.224 130.828C303.224 135.468 303.172 138.405 303.079 139.64C302.828 142.88 302.234 145.339 301.308 147.015C300.15 149.067 298.38 150.098 295.995 150.098C293.286 150.098 291.391 148.667 290.308 145.807C289.484 143.697 289.079 140.755 289.079 136.973C289.079 135.714 289.098 134.489 289.141 133.307C289.193 132.115 289.256 131.026 289.328 130.036C289.328 129.785 289.292 129.432 289.224 128.973C289.167 128.505 289.141 128.156 289.141 127.932C289.141 127.656 289.208 127.296 289.349 126.848C289.484 126.391 289.812 126.026 290.328 125.744C290.838 125.452 291.437 125.307 292.12 125.307C292.869 125.307 293.516 125.505 294.057 125.891C294.598 126.281 294.869 126.785 294.869 127.41C294.869 127.785 294.792 128.197 294.641 128.64C294.265 129.656 294.079 130.339 294.079 130.681C294.079 131.739 294.036 133.296 293.953 135.348C293.88 137.405 293.849 138.634 293.849 139.036C293.849 140.995 293.979 142.505 294.245 143.557C294.505 144.615 294.995 145.14 295.702 145.14C296.453 145.14 297.026 144.224 297.432 142.391C297.958 139.973 298.224 135.9 298.224 130.161C298.224 129.927 298.172 129.547 298.079 129.015C297.995 128.473 297.953 128.077 297.953 127.828C297.953 127.369 298.088 127.015 298.369 126.765C298.645 126.515 299.145 126.391 299.869 126.391C300.869 126.391 301.786 126.634 302.62 127.119C303.453 127.593 303.869 128.176 303.869 128.869Z" fill="#0007FF"/>
<path d="M318.729 143.098C318.729 145.031 318.041 146.661 316.667 147.995C315.302 149.328 313.708 149.995 311.874 149.995C310.068 149.995 308.322 148.91 306.645 146.744C305.145 144.785 304.505 143.509 304.729 142.91C304.822 142.634 305.136 142.385 305.667 142.161C306.193 141.943 306.734 141.828 307.292 141.828C308.943 141.828 310.021 142.515 310.521 143.891C311.021 145.265 311.656 145.952 312.437 145.952C312.812 145.952 313.088 145.615 313.27 144.932C313.464 144.239 313.562 143.489 313.562 142.681C311.589 141.281 309.874 139.88 308.417 138.473C306.833 136.948 306.041 135.224 306.041 133.307C306.041 131.214 306.645 129.405 307.855 127.891C309.073 126.364 310.589 125.598 312.396 125.598C314.104 125.598 315.421 126.067 316.355 126.995C317.281 127.927 317.75 129.281 317.75 131.057C317.75 131.239 317.86 131.615 318.084 132.181C318.208 132.489 318.27 132.755 318.27 132.973C318.27 133.724 318.021 134.4 317.521 134.995C317.021 135.577 316.355 135.869 315.521 135.869C314.645 135.869 314.021 135.672 313.645 135.265C313.172 134.765 312.937 133.817 312.937 132.41C312.937 131.943 312.937 131.598 312.937 131.391C312.937 130.796 312.885 130.364 312.792 130.098C312.708 129.839 312.489 129.703 312.145 129.703C311.688 129.703 311.374 129.952 311.208 130.452C311.052 130.952 310.979 131.672 310.979 132.598C310.979 134.031 312.27 135.588 314.855 137.265C317.437 138.948 318.729 140.891 318.729 143.098Z" fill="#0007FF"/>
<path d="M326.401 144.224C326.401 144.405 326.328 144.739 326.193 145.224C326.052 145.714 325.932 146.134 325.839 146.495C325.839 146.785 325.828 147.052 325.817 147.285C325.803 147.509 325.745 147.822 325.651 148.224C325.443 148.817 324.808 149.167 323.755 149.265C322.781 149.265 322.036 149.067 321.527 148.681C321.01 148.296 320.755 147.755 320.755 147.057C320.755 146.681 320.943 146.14 321.317 145.432V143.515C321.317 143.172 321.505 142.891 321.88 142.681C322.256 142.463 322.703 142.322 323.234 142.265C323.636 142.265 324.073 142.328 324.546 142.452C325.781 142.785 326.401 143.38 326.401 144.224Z" fill="#0007FF"/>
<path d="M366.052 117.098C366.052 117.697 365.802 118.41 365.302 119.244C365.245 119.369 365.104 119.557 364.885 119.807L358.636 140.91C358.786 141.317 358.865 141.932 358.865 142.765C358.865 143.463 358.822 144.115 358.74 144.724C358.667 145.322 358.584 145.869 358.489 146.369C358.333 146.676 358.198 146.905 358.073 147.057C357.167 148.156 355.849 148.703 354.115 148.703C352.808 148.703 351.656 148.339 350.656 147.598C349.656 146.864 349.156 145.905 349.156 144.724C349.156 144.265 349.229 143.672 349.385 142.932C349.552 142.197 349.636 141.755 349.636 141.598C349.636 141.172 349.521 140.781 349.302 140.432L345.844 128.077L341.656 142.64C341.865 143.098 342.016 143.468 342.115 143.744C342.458 144.676 342.636 145.391 342.636 145.891C342.636 147.296 342.308 148.463 341.656 149.391C340.907 150.443 339.812 150.973 338.385 150.973C336.828 150.973 335.765 150.192 335.198 148.64C335.041 148.156 334.917 147.38 334.822 146.307L328.948 120.932C328.765 120.588 328.625 120.322 328.532 120.14C328.25 119.515 328.115 119.005 328.115 118.598C328.115 118.005 328.469 117.443 329.177 116.91C329.896 116.385 330.677 116.119 331.51 116.119C332.855 116.119 333.808 116.484 334.365 117.203C334.792 117.76 335.01 118.473 335.01 119.348C335.01 119.629 334.995 119.88 334.969 120.098C334.937 120.307 334.891 120.509 334.822 120.703L337.719 136.432L342.448 119.348C342.375 119.197 342.344 119.088 342.344 119.015C342.188 118.463 342.115 118.047 342.115 117.765C342.208 117.015 342.604 116.484 343.302 116.161C343.995 115.828 344.812 115.661 345.76 115.661C346.661 115.661 347.453 115.891 348.136 116.348C348.812 116.796 349.251 117.432 349.448 118.265C349.475 118.391 349.489 118.577 349.489 118.828C349.489 119.151 349.453 119.448 349.385 119.724C349.328 120.005 349.265 120.265 349.198 120.515L353.822 136.432L358.781 119.724C358.781 119.557 358.781 119.432 358.781 119.348C358.74 119.197 358.719 119.026 358.719 118.828C358.719 117.744 358.953 116.843 359.426 116.119C360.104 115.067 361.286 114.536 362.969 114.536C363.77 114.536 364.489 114.781 365.114 115.265C365.74 115.739 366.052 116.348 366.052 117.098Z" fill="#0007FF"/>
<path d="M379.838 137.495C379.838 140.859 379.26 143.615 378.109 145.765C376.745 148.307 374.713 149.577 372.005 149.577C369.391 149.577 367.412 148.285 366.068 145.703C364.984 143.593 364.443 140.952 364.443 137.785C364.443 134.452 364.817 131.9 365.568 130.119C366.869 127.077 369.245 125.557 372.693 125.557C374.469 125.557 375.994 126.339 377.276 127.891C378.984 130.005 379.838 133.203 379.838 137.495ZM374.984 137.64C374.984 134.181 374.734 131.88 374.234 130.724C373.901 129.948 373.308 129.557 372.464 129.557C371.557 129.557 370.802 130.348 370.193 131.932C369.593 133.505 369.297 135.281 369.297 137.265C369.297 140.38 369.505 142.557 369.922 143.807C370.338 145.047 371.057 145.661 372.088 145.661C372.713 145.661 373.349 144.755 374.005 142.932C374.656 141.115 374.984 139.348 374.984 137.64Z" fill="#0007FF"/>
<path d="M397.125 127.473C397.125 127.963 396.75 128.427 396 128.869C395.125 129.244 394.27 129.598 393.437 129.932L386.812 137.536C386.838 139.134 386.86 140.719 386.874 142.285C386.885 143.859 386.926 144.703 387 144.828C387.177 145.134 387.317 145.385 387.417 145.577C387.693 146.161 387.833 146.656 387.833 147.057C387.833 147.839 387.521 148.463 386.896 148.932C386.281 149.4 385.552 149.64 384.708 149.64C383.874 149.64 383.218 149.432 382.75 149.015C382.15 148.489 381.854 147.681 381.854 146.598C381.854 146.348 381.874 146.098 381.917 145.848C381.917 145.796 381.926 145.681 381.958 145.515L382 129.661C381.874 129.41 381.781 129.214 381.729 129.057C381.505 128.531 381.38 128.181 381.354 128.015C381.354 127.489 381.713 127.093 382.437 126.828C383.172 126.567 383.964 126.432 384.812 126.432C385.546 126.432 386.156 126.536 386.645 126.744C387.13 126.943 387.374 127.322 387.374 127.891C387.374 128.265 387.172 128.656 386.77 129.057L386.812 130.724L391.062 126.307C391.365 125.963 391.645 125.692 391.896 125.495C392.396 125.093 392.969 124.891 393.625 124.891C394.625 124.891 395.458 125.119 396.125 125.577C396.792 126.026 397.125 126.656 397.125 127.473Z" fill="#0007FF"/>
<path d="M411.699 143.098C411.699 145.031 411.011 146.661 409.636 147.995C408.271 149.328 406.677 149.995 404.844 149.995C403.036 149.995 401.292 148.91 399.615 146.744C398.115 144.785 397.475 143.509 397.699 142.91C397.792 142.634 398.104 142.385 398.636 142.161C399.161 141.943 399.703 141.828 400.26 141.828C401.912 141.828 402.989 142.515 403.489 143.891C403.989 145.265 404.625 145.952 405.407 145.952C405.781 145.952 406.057 145.615 406.24 144.932C406.432 144.239 406.532 143.489 406.532 142.681C404.557 141.281 402.844 139.88 401.385 138.473C399.803 136.948 399.011 135.224 399.011 133.307C399.011 131.214 399.615 129.405 400.823 127.891C402.041 126.364 403.557 125.598 405.365 125.598C407.073 125.598 408.391 126.067 409.323 126.995C410.251 127.927 410.719 129.281 410.719 131.057C410.719 131.239 410.828 131.615 411.052 132.181C411.177 132.489 411.24 132.755 411.24 132.973C411.24 133.724 410.989 134.4 410.489 134.995C409.989 135.577 409.323 135.869 408.489 135.869C407.615 135.869 406.989 135.672 406.615 135.265C406.141 134.765 405.907 133.817 405.907 132.41C405.907 131.943 405.907 131.598 405.907 131.391C405.907 130.796 405.855 130.364 405.76 130.098C405.677 129.839 405.459 129.703 405.115 129.703C404.656 129.703 404.344 129.952 404.177 130.452C404.021 130.952 403.948 131.672 403.948 132.598C403.948 134.031 405.24 135.588 407.823 137.265C410.407 138.948 411.699 140.891 411.699 143.098Z" fill="#0007FF"/>
<path d="M430.849 138.515C430.849 139.989 430.787 141.255 430.661 142.307C430.536 143.364 430.308 144.307 429.975 145.14C430.057 145.364 430.12 145.588 430.161 145.807C430.213 146.031 430.229 146.244 430.203 146.452C430.131 147.109 429.833 147.598 429.308 147.932C428.776 148.255 428.125 148.41 427.349 148.41C426.667 148.41 426.079 148.265 425.579 147.973C425.079 147.681 424.787 147.224 424.703 146.598C424.631 146.197 424.771 145.681 425.12 145.057C425.172 144.963 425.265 144.822 425.391 144.64C425.484 144.088 425.547 143.619 425.579 143.244C425.923 140.91 426.099 139.181 426.099 138.057C426.099 135.848 426.047 134.281 425.953 133.348C425.771 131.64 425.443 130.785 424.975 130.785C424.193 130.785 423 132.421 421.391 135.681C419.584 139.322 418.683 142.651 418.683 145.661C418.683 145.984 418.808 146.448 419.057 147.057C419.208 147.462 419.287 147.744 419.287 147.91C419.287 148.036 419.251 148.192 419.183 148.369C418.776 149.619 417.984 150.285 416.808 150.369C415.975 150.369 415.333 149.891 414.891 148.932C414.308 147.629 414.016 145.405 414.016 142.265L414.203 117.848C414.161 117.724 414.125 117.531 414.099 117.265C414.068 117.005 414.057 116.822 414.057 116.724C414.057 116.572 414.084 116.369 414.141 116.119C414.516 115.192 415.213 114.724 416.245 114.724C417.047 114.724 417.792 114.921 418.475 115.307C419.167 115.697 419.516 116.192 419.516 116.785C419.516 117.026 419.391 117.348 419.141 117.765C419.084 117.891 418.959 118.057 418.765 118.265V131.328C419.541 129.619 420.417 128.339 421.391 127.473C422.568 126.405 423.964 125.869 425.579 125.869C427.203 125.869 428.484 127.067 429.432 129.452C430.375 131.828 430.849 134.848 430.849 138.515Z" fill="#0007FF"/>
<path d="M439.172 119.203C439.172 119.452 439.088 119.796 438.922 120.224C438.557 121.281 438.38 122.296 438.38 123.265C438.38 123.515 438.182 123.744 437.797 123.952C437.406 124.151 436.974 124.244 436.505 124.244C436.224 124.276 435.974 124.285 435.754 124.285C435.172 124.285 434.693 124.161 434.317 123.91C433.786 123.536 433.526 122.932 433.526 122.098C433.526 122.005 433.568 121.891 433.65 121.765C433.901 121.463 434.026 120.391 434.026 118.557C434.026 118.239 434.156 117.968 434.421 117.744C434.682 117.509 435.202 117.359 435.984 117.285C436.677 117.285 437.302 117.4 437.86 117.619C438.734 117.968 439.172 118.495 439.172 119.203ZM439.589 127.828C439.589 128.203 439.442 128.76 439.15 129.495C438.869 130.233 438.578 130.968 438.276 131.703V144.224C438.494 144.681 438.65 145.072 438.734 145.391C439.052 146.348 439.213 147.255 439.213 148.098C439.213 148.681 438.912 149.129 438.317 149.452C437.734 149.785 437.068 149.952 436.317 149.952C435.317 149.952 434.614 149.624 434.213 148.973C433.656 148.098 433.38 146.468 433.38 144.077L433.421 131.473C433.365 131.072 433.338 130.744 433.338 130.495C433.24 129.536 433.193 128.932 433.193 128.681C433.218 128.405 433.234 128.219 433.234 128.119C433.328 127.495 433.614 126.973 434.088 126.557C434.573 126.14 435.114 125.932 435.713 125.932C436.589 125.932 437.448 126.115 438.297 126.473C439.156 126.822 439.589 127.276 439.589 127.828Z" fill="#0007FF"/>
<path d="M457.369 137.348C457.369 140.588 456.776 143.296 455.599 145.473C454.292 147.88 452.599 149.077 450.516 149.077C449.833 149.077 449.057 148.624 448.183 147.724C447.901 147.448 447.547 146.995 447.12 146.369C447.12 147.676 447.125 148.979 447.141 150.285C447.151 151.588 447.208 152.317 447.308 152.473C447.308 152.598 447.443 152.921 447.724 153.452C448 153.979 448.141 154.443 448.141 154.848C448.141 155.624 447.808 156.255 447.141 156.744C446.475 157.229 445.703 157.473 444.828 157.473C444.021 157.473 443.333 157.249 442.765 156.807C442.208 156.374 441.932 155.785 441.932 155.036C441.932 154.577 442.041 153.943 442.265 153.14C442.292 153.015 442.355 152.828 442.453 152.577V129.369L441.787 127.328C441.787 126.703 442.057 126.239 442.599 125.932C443.151 125.615 443.849 125.452 444.683 125.452C445.432 125.452 446.036 125.547 446.495 125.724C446.964 125.891 447.235 126.239 447.308 126.765L446.869 128.536C447.464 127.76 448.079 127.156 448.703 126.724C449.505 126.156 450.36 125.869 451.265 125.869C453.5 125.869 455.131 127.057 456.161 129.432C456.964 131.322 457.369 133.963 457.369 137.348ZM452.203 136.973C452.203 136.448 452.203 136.047 452.203 135.765C452.203 133.348 452.021 131.744 451.661 130.952C451.297 130.151 450.765 129.744 450.057 129.744C449.459 129.744 448.896 130.593 448.369 132.285C447.839 133.984 447.579 135.672 447.579 137.348C447.579 138.781 447.828 140.322 448.328 141.973C448.828 143.629 449.401 144.452 450.057 144.452C450.735 144.452 451.265 143.672 451.641 142.098C452.016 140.531 452.203 138.822 452.203 136.973Z" fill="#0007FF"/>
<path d="M465.396 144.224C465.396 144.405 465.322 144.739 465.188 145.224C465.046 145.714 464.926 146.134 464.833 146.495C464.833 146.785 464.822 147.052 464.812 147.285C464.797 147.509 464.74 147.822 464.645 148.224C464.437 148.817 463.802 149.167 462.75 149.265C461.776 149.265 461.032 149.067 460.521 148.681C460.005 148.296 459.75 147.755 459.75 147.057C459.75 146.681 459.937 146.14 460.312 145.432V143.515C460.312 143.172 460.5 142.891 460.874 142.681C461.25 142.463 461.698 142.322 462.229 142.265C462.63 142.265 463.068 142.328 463.541 142.452C464.776 142.785 465.396 143.38 465.396 144.224Z" fill="#0007FF"/>
<path d="M484.151 143.557C484.151 145.115 483.489 146.129 482.172 146.598C481.589 146.822 480.609 146.932 479.235 146.932C478.027 146.932 476.932 147.369 475.964 148.244C475.005 149.104 473.948 149.536 472.797 149.536C471.964 149.536 471.131 149.14 470.297 148.348C469.475 147.557 469.068 146.88 469.068 146.307C469.068 145.973 469.256 145.547 469.631 145.015C470.005 144.489 470.193 143.973 470.193 143.473L468.464 118.744C468.339 118.619 468.24 118.509 468.172 118.41C467.765 117.885 467.568 117.421 467.568 117.015C467.609 116.515 467.943 116.077 468.568 115.703C469.203 115.328 469.885 115.14 470.609 115.14C471.536 115.14 472.511 115.405 473.527 115.932C474.536 116.463 475.047 117.088 475.047 117.807C475.047 118.057 474.923 118.369 474.672 118.744C474.599 118.869 474.475 119.036 474.297 119.244L475.797 141.744L479.984 139.973C480.427 139.822 480.865 139.76 481.297 139.785C481.88 139.785 482.495 140.192 483.151 140.995C483.817 141.801 484.151 142.656 484.151 143.557Z" fill="#0007FF"/>
<path d="M491.579 119.203C491.579 119.452 491.495 119.796 491.328 120.224C490.964 121.281 490.787 122.296 490.787 123.265C490.787 123.515 490.589 123.744 490.203 123.952C489.812 124.151 489.38 124.244 488.912 124.244C488.631 124.276 488.38 124.285 488.161 124.285C487.579 124.285 487.099 124.161 486.724 123.91C486.193 123.536 485.932 122.932 485.932 122.098C485.932 122.005 485.975 121.891 486.057 121.765C486.308 121.463 486.432 120.391 486.432 118.557C486.432 118.239 486.563 117.968 486.828 117.744C487.088 117.509 487.609 117.359 488.391 117.285C489.084 117.285 489.708 117.4 490.265 117.619C491.141 117.968 491.579 118.495 491.579 119.203ZM491.995 127.828C491.995 128.203 491.849 128.76 491.557 129.495C491.276 130.233 490.984 130.968 490.683 131.703V144.224C490.901 144.681 491.057 145.072 491.141 145.391C491.459 146.348 491.62 147.255 491.62 148.098C491.62 148.681 491.317 149.129 490.724 149.452C490.141 149.785 489.475 149.952 488.724 149.952C487.724 149.952 487.021 149.624 486.62 148.973C486.063 148.098 485.787 146.468 485.787 144.077L485.828 131.473C485.771 131.072 485.745 130.744 485.745 130.495C485.645 129.536 485.599 128.932 485.599 128.681C485.625 128.405 485.641 128.219 485.641 128.119C485.735 127.495 486.021 126.973 486.495 126.557C486.979 126.14 487.521 125.932 488.12 125.932C488.995 125.932 489.855 126.115 490.703 126.473C491.563 126.822 491.995 127.276 491.995 127.828Z" fill="#0007FF"/>
<path d="M509.276 128.724C509.276 129.598 508.651 130.161 507.401 130.41C504.287 131.026 502.656 131.364 502.505 131.432V144.785C502.505 145.369 502.755 146.067 503.256 146.869C503.505 147.317 503.765 147.755 504.047 148.181C503.823 149.515 502.907 150.181 501.297 150.181C499.765 150.181 498.817 149.563 498.443 148.328C498.068 147.077 497.88 144.219 497.88 139.744V132.64L496.297 132.932C495.421 132.932 494.755 132.76 494.297 132.41C493.672 131.984 493.36 131.265 493.36 130.265C493.36 129.588 493.948 129.119 495.131 128.869C496.308 128.619 497.199 128.448 497.797 128.348C497.797 123.839 498.365 120.405 499.505 118.057C500.656 115.714 502.369 114.536 504.651 114.536C505.453 114.536 506.24 114.724 507.005 115.098C507.765 115.473 508.151 115.864 508.151 116.265C508.151 116.489 507.203 117.296 505.317 118.681C503.443 120.057 502.505 122.828 502.505 126.995C503.407 126.651 504.109 126.421 504.609 126.307C505.109 126.181 505.776 126.119 506.609 126.119C507.453 126.552 508.016 126.88 508.297 127.098C508.948 127.588 509.276 128.129 509.276 128.724Z" fill="#0007FF"/>
<path d="M525.265 144.161C525.265 145.41 524.495 146.619 522.953 147.785C521.412 148.952 519.672 149.536 517.745 149.536C515.229 149.536 513.36 148.463 512.141 146.307C511.084 144.448 510.557 141.869 510.557 138.577C510.557 134.343 511.38 131.057 513.036 128.724C514.547 126.572 516.521 125.495 518.953 125.495C520.453 125.495 521.683 125.968 522.641 126.91C523.735 127.968 524.287 129.489 524.287 131.473C524.287 133.531 523.536 135.552 522.036 137.536C520.355 139.785 518.161 141.405 515.453 142.391C515.479 143.088 515.557 143.598 515.683 143.932C516.099 144.989 516.912 145.515 518.12 145.515C519.453 145.515 520.401 144.843 520.975 143.495C521.557 142.151 522.099 141.443 522.599 141.369C523.099 141.369 523.609 141.572 524.141 141.973C524.891 142.531 525.265 143.26 525.265 144.161ZM520.308 131.577C520.308 131.134 520.193 130.76 519.975 130.452C519.765 130.134 519.412 129.973 518.912 129.973C517.703 129.973 516.771 130.785 516.12 132.41C515.464 134.026 515.141 136.031 515.141 138.432C515.943 138.239 516.937 137.526 518.12 136.285C519.579 134.733 520.308 133.161 520.308 131.577Z" fill="#0007FF"/>
</g>
<defs>
<clipPath id="clip0_19_43">
<rect width="525" height="218" fill="white"/>
</clipPath>
</defs>
</svg>
